  0
SECTION
  2
HEADER
  9
$ACADVER
  1
AC1027
  9
$ACADMAINTVER
 70
     8
  9
$DWGCODEPAGE
  3
ANSI_1255
  9
$REQUIREDVERSIONS
160
                 0
  9
$INSBASE
 10
0.0
 20
0.0
 30
0.0
  9
$EXTMIN
 10
1.000000000000000E+20
 20
1.000000000000000E+20
 30
1.000000000000000E+20
  9
$EXTMAX
 10
-1.000000000000000E+20
 20
-1.000000000000000E+20
 30
-1.000000000000000E+20
  9
$LIMMIN
 10
122.555
 20
95.8496686
  9
$LIMMAX
 10
350.81609796
 20
108.8644
  9
$ORTHOMODE
 70
     0
  9
$REGENMODE
 70
     1
  9
$FILLMODE
 70
     1
  9
$QTEXTMODE
 70
     0
  9
$MIRRTEXT
 70
     1
  9
$LTSCALE
 40
1.0
  9
$ATTMODE
 70
     1
  9
$TEXTSIZE
 40
2.5
  9
$TRACEWID
 40
1.0
  9
$TEXTSTYLE
  7
Standard
  9
$CLAYER
  8
0
  9
$CELTYPE
  6
ByLayer
  9
$CECOLOR
 62
   256
  9
$CELTSCALE
 40
1.0
  9
$DISPSILH
 70
     0
  9
$DIMSCALE
 40
1.0
  9
$DIMASZ
 40
2.5
  9
$DIMEXO
 40
0.625
  9
$DIMDLI
 40
3.75
  9
$DIMRND
 40
0.0
  9
$DIMDLE
 40
0.0
  9
$DIMEXE
 40
1.25
  9
$DIMTP
 40
0.0
  9
$DIMTM
 40
0.0
  9
$DIMTXT
 40
2.5
  9
$DIMCEN
 40
2.5
  9
$DIMTSZ
 40
0.0
  9
$DIMTOL
 70
     0
  9
$DIMLIM
 70
     0
  9
$DIMTIH
 70
     0
  9
$DIMTOH
 70
     0
  9
$DIMSE1
 70
     0
  9
$DIMSE2
 70
     0
  9
$DIMTAD
 70
     1
  9
$DIMZIN
 70
     8
  9
$DIMBLK
  1

  9
$DIMASO
 70
     1
  9
$DIMSHO
 70
     1
  9
$DIMPOST
  1

  9
$DIMAPOST
  1

  9
$DIMALT
 70
     0
  9
$DIMALTD
 70
     3
  9
$DIMALTF
 40
0.03937007874016
  9
$DIMLFAC
 40
1.0
  9
$DIMTOFL
 70
     1
  9
$DIMTVP
 40
0.0
  9
$DIMTIX
 70
     0
  9
$DIMSOXD
 70
     0
  9
$DIMSAH
 70
     0
  9
$DIMBLK1
  1

  9
$DIMBLK2
  1

  9
$DIMSTYLE
  2
ISO-25
  9
$DIMCLRD
 70
     0
  9
$DIMCLRE
 70
     0
  9
$DIMCLRT
 70
     0
  9
$DIMTFAC
 40
1.0
  9
$DIMGAP
 40
0.625
  9
$DIMJUST
 70
     0
  9
$DIMSD1
 70
     0
  9
$DIMSD2
 70
     0
  9
$DIMTOLJ
 70
     0
  9
$DIMTZIN
 70
     8
  9
$DIMALTZ
 70
     0
  9
$DIMALTTZ
 70
     0
  9
$DIMUPT
 70
     0
  9
$DIMDEC
 70
     2
  9
$DIMTDEC
 70
     2
  9
$DIMALTU
 70
     2
  9
$DIMALTTD
 70
     3
  9
$DIMTXSTY
  7
Standard
  9
$DIMAUNIT
 70
     0
  9
$DIMADEC
 70
     0
  9
$DIMALTRND
 40
0.0
  9
$DIMAZIN
 70
     0
  9
$DIMDSEP
 70
    44
  9
$DIMATFIT
 70
     3
  9
$DIMFRAC
 70
     0
  9
$DIMLDRBLK
  1

  9
$DIMLUNIT
 70
     2
  9
$DIMLWD
 70
    -2
  9
$DIMLWE
 70
    -2
  9
$DIMTMOVE
 70
     0
  9
$DIMFXL
 40
1.0
  9
$DIMFXLON
 70
     0
  9
$DIMJOGANG
 40
0.7853981633974483
  9
$DIMTFILL
 70
     0
  9
$DIMTFILLCLR
 70
     0
  9
$DIMARCSYM
 70
     0
  9
$DIMLTYPE
  6

  9
$DIMLTEX1
  6

  9
$DIMLTEX2
  6

  9
$DIMTXTDIRECTION
 70
     0
  9
$LUNITS
 70
     2
  9
$LUPREC
 70
     4
  9
$SKETCHINC
 40
1.0
  9
$FILLETRAD
 40
10.0
  9
$AUNITS
 70
     0
  9
$AUPREC
 70
     0
  9
$MENU
  1
.
  9
$ELEVATION
 40
0.0
  9
$PELEVATION
 40
0.0
  9
$THICKNESS
 40
0.0
  9
$LIMCHECK
 70
     0
  9
$CHAMFERA
 40
0.0
  9
$CHAMFERB
 40
0.0
  9
$CHAMFERC
 40
0.0
  9
$CHAMFERD
 40
0.0
  9
$SKPOLY
 70
     0
  9
$TDCREATE
 40
2459913.559698356
  9
$TDUCREATE
 40
2459913.476365023
  9
$TDUPDATE
 40
2459913.559699618
  9
$TDUUPDATE
 40
2459913.476366285
  9
$TDINDWG
 40
0.0000000116
  9
$TDUSRTIMER
 40
0.0000000116
  9
$USRTIMER
 70
     1
  9
$ANGBASE
 50
0.0
  9
$ANGDIR
 70
     0
  9
$PDMODE
 70
     0
  9
$PDSIZE
 40
0.0
  9
$PLINEWID
 40
0.0
  9
$SPLFRAME
 70
     0
  9
$SPLINETYPE
 70
     6
  9
$SPLINESEGS
 70
     8
  9
$HANDSEED
  5
203
  9
$SURFTAB1
 70
     6
  9
$SURFTAB2
 70
     6
  9
$SURFTYPE
 70
     6
  9
$SURFU
 70
     6
  9
$SURFV
 70
     6
  9
$UCSBASE
  2

  9
$UCSNAME
  2

  9
$UCSORG
 10
0.0
 20
0.0
 30
0.0
  9
$UCSXDIR
 10
1.0
 20
0.0
 30
0.0
  9
$UCSYDIR
 10
0.0
 20
1.0
 30
0.0
  9
$UCSORTHOREF
  2

  9
$UCSORTHOVIEW
 70
     0
  9
$UCSORGTOP
 10
0.0
 20
0.0
 30
0.0
  9
$UCSORGBOTTOM
 10
0.0
 20
0.0
 30
0.0
  9
$UCSORGLEFT
 10
0.0
 20
0.0
 30
0.0
  9
$UCSORGRIGHT
 10
0.0
 20
0.0
 30
0.0
  9
$UCSORGFRONT
 10
0.0
 20
0.0
 30
0.0
  9
$UCSORGBACK
 10
0.0
 20
0.0
 30
0.0
  9
$PUCSBASE
  2

  9
$PUCSNAME
  2

  9
$PUCSORG
 10
0.0
 20
0.0
 30
0.0
  9
$PUCSXDIR
 10
1.0
 20
0.0
 30
0.0
  9
$PUCSYDIR
 10
0.0
 20
1.0
 30
0.0
  9
$PUCSORTHOREF
  2

  9
$PUCSORTHOVIEW
 70
     0
  9
$PUCSORGTOP
 10
0.0
 20
0.0
 30
0.0
  9
$PUCSORGBOTTOM
 10
0.0
 20
0.0
 30
0.0
  9
$PUCSORGLEFT
 10
0.0
 20
0.0
 30
0.0
  9
$PUCSORGRIGHT
 10
0.0
 20
0.0
 30
0.0
  9
$PUCSORGFRONT
 10
0.0
 20
0.0
 30
0.0
  9
$PUCSORGBACK
 10
0.0
 20
0.0
 30
0.0
  9
$USERI1
 70
     0
  9
$USERI2
 70
     0
  9
$USERI3
 70
     0
  9
$USERI4
 70
     0
  9
$USERI5
 70
     0
  9
$USERR1
 40
0.0
  9
$USERR2
 40
0.0
  9
$USERR3
 40
0.0
  9
$USERR4
 40
0.0
  9
$USERR5
 40
0.0
  9
$WORLDVIEW
 70
     1
  9
$SHADEDGE
 70
     3
  9
$SHADEDIF
 70
    70
  9
$TILEMODE
 70
     1
  9
$MAXACTVP
 70
    64
  9
$PINSBASE
 10
0.0
 20
0.0
 30
0.0
  9
$PLIMCHECK
 70
     0
  9
$PEXTMIN
 10
1.000000000000000E+20
 20
1.000000000000000E+20
 30
1.000000000000000E+20
  9
$PEXTMAX
 10
-1.000000000000000E+20
 20
-1.000000000000000E+20
 30
-1.000000000000000E+20
  9
$PLIMMIN
 10
0.0
 20
0.0
  9
$PLIMMAX
 10
420.0
 20
297.0
  9
$UNITMODE
 70
     0
  9
$VISRETAIN
 70
     1
  9
$PLINEGEN
 70
     0
  9
$PSLTSCALE
 70
     1
  9
$TREEDEPTH
 70
  3020
  9
$CMLSTYLE
  2
Standard
  9
$CMLJUST
 70
     0
  9
$CMLSCALE
 40
20.0
  9
$PROXYGRAPHICS
 70
     1
  9
$MEASUREMENT
 70
     1
  9
$CELWEIGHT
370
    -1
  9
$ENDCAPS
280
     0
  9
$JOINSTYLE
280
     0
  9
$LWDISPLAY
290
     0
  9
$INSUNITS
 70
     4
  9
$HYPERLINKBASE
  1

  9
$STYLESHEET
  1

  9
$XEDIT
290
     1
  9
$CEPSNTYPE
380
     0
  9
$PSTYLEMODE
290
     1
  9
$FINGERPRINTGUID
  2
{86C18577-92CA-4355-AB94-B99DD1465E1A}
  9
$VERSIONGUID
  2
{FAEB1C32-E019-11D5-929B-00C0DF256EC4}
  9
$EXTNAMES
290
     1
  9
$PSVPSCALE
 40
0.0
  9
$OLESTARTUP
290
     0
  9
$SORTENTS
280
   127
  9
$INDEXCTL
280
     0
  9
$HIDETEXT
280
     1
  9
$XCLIPFRAME
280
     2
  9
$HALOGAP
280
     0
  9
$OBSCOLOR
 70
   257
  9
$OBSLTYPE
280
     0
  9
$INTERSECTIONDISPLAY
280
     0
  9
$INTERSECTIONCOLOR
 70
   257
  9
$DIMASSOC
280
     2
  9
$PROJECTNAME
  1

  9
$CAMERADISPLAY
290
     0
  9
$LENSLENGTH
 40
50.0
  9
$CAMERAHEIGHT
 40
0.0
  9
$STEPSPERSEC
 40
2.0
  9
$STEPSIZE
 40
6.0
  9
$3DDWFPREC
 40
2.0
  9
$PSOLWIDTH
 40
5.0
  9
$PSOLHEIGHT
 40
80.0
  9
$LOFTANG1
 40
1.570796326794897
  9
$LOFTANG2
 40
1.570796326794897
  9
$LOFTMAG1
 40
0.0
  9
$LOFTMAG2
 40
0.0
  9
$LOFTPARAM
 70
     7
  9
$LOFTNORMALS
280
     1
  9
$LATITUDE
 40
37.795
  9
$LONGITUDE
 40
-122.394
  9
$NORTHDIRECTION
 40
0.0
  9
$TIMEZONE
 70
 -8000
  9
$LIGHTGLYPHDISPLAY
280
     1
  9
$TILEMODELIGHTSYNCH
280
     1
  9
$CMATERIAL
347
44
  9
$SOLIDHIST
280
     0
  9
$SHOWHIST
280
     1
  9
$DWFFRAME
280
     2
  9
$DGNFRAME
280
     2
  9
$REALWORLDSCALE
290
     1
  9
$INTERFERECOLOR
 62
   256
  9
$CSHADOW
280
     0
  9
$SHADOWPLANELOCATION
 40
0.0
  0
ENDSEC
  0
SECTION
  2
CLASSES
  0
CLASS
  1
ACDBDICTIONARYWDFLT
  2
AcDbDictionaryWithDefault
  3
ObjectDBX Classes
 90
        0
 91
        4
280
     0
281
     0
  0
CLASS
  1
VISUALSTYLE
  2
AcDbVisualStyle
  3
ObjectDBX Classes
 90
     4095
 91
        4
280
     0
281
     0
  0
CLASS
  1
MATERIAL
  2
AcDbMaterial
  3
ObjectDBX Classes
 90
     1153
 91
        4
280
     0
281
     0
  0
CLASS
  1
SCALE
  2
AcDbScale
  3
ObjectDBX Classes
 90
     1153
 91
        4
280
     0
281
     0
  0
CLASS
  1
TABLESTYLE
  2
AcDbTableStyle
  3
ObjectDBX Classes
 90
     4095
 91
        4
280
     0
281
     0
  0
CLASS
  1
MLEADERSTYLE
  2
AcDbMLeaderStyle
  3
ACDB_MLEADERSTYLE_CLASS
 90
     4095
 91
        4
280
     0
281
     0
  0
CLASS
  1
SUN
  2
AcDbSun
  3
SCENEOE
 90
     1153
 91
        4
280
     0
281
     0
  0
CLASS
  1
DICTIONARYVAR
  2
AcDbDictionaryVar
  3
ObjectDBX Classes
 90
        0
 91
        4
280
     0
281
     0
  0
CLASS
  1
CELLSTYLEMAP
  2
AcDbCellStyleMap
  3
ObjectDBX Classes
 90
     1152
 91
        4
280
     0
281
     0
  0
ENDSEC
  0
SECTION
  2
TABLES
  0
TABLE
  2
VPORT
  5
8
330
0
100
AcDbSymbolTable
 70
     1
  0
VPORT
  5
29
330
8
100
AcDbSymbolTableRecord
100
AcDbViewportTableRecord
  2
*Active
 70
     0
 10
0.0
 20
0.0
 11
1.0
 21
1.0
 12
344.1869158878504
 22
148.5
 13
0.0
 23
0.0
 14
10.0
 24
10.0
 15
10.0
 25
10.0
 16
0.0
 26
0.0
 36
1.0
 17
0.0
 27
0.0
 37
0.0
 40
297.0
 41
1.972972972850329
 42
50.0
 43
0.0
 44
0.0
 50
0.0
 51
0.0
 71
     0
 72
   100
 73
     1
 74
     3
 75
     0
 76
     0
 77
     0
 78
     0
281
     0
 65
     1
110
0.0
120
0.0
130
0.0
111
1.0
121
0.0
131
0.0
112
0.0
122
1.0
132
0.0
 79
     0
146
0.0
 60
     3
 61
     5
292
     1
282
     1
141
0.0
142
0.0
 63
   250
361
6D
  0
ENDTAB
  0
TABLE
  2
LTYPE
  5
5
330
0
100
AcDbSymbolTable
 70
     1
  0
LTYPE
  5
14
330
5
100
AcDbSymbolTableRecord
100
AcDbLinetypeTableRecord
  2
ByBlock
 70
     0
  3

 72
    65
 73
     0
 40
0.0
  0
LTYPE
  5
15
330
5
100
AcDbSymbolTableRecord
100
AcDbLinetypeTableRecord
  2
ByLayer
 70
     0
  3

 72
    65
 73
     0
 40
0.0
  0
LTYPE
  5
16
330
5
100
AcDbSymbolTableRecord
100
AcDbLinetypeTableRecord
  2
Continuous
 70
     0
  3
Solid line
 72
    65
 73
     0
 40
0.0
  0
ENDTAB
  0
TABLE
  2
LAYER
  5
2
330
0
100
AcDbSymbolTable
 70
     6
  0
LAYER
  5
10
330
2
100
AcDbSymbolTableRecord
100
AcDbLayerTableRecord
  2
0
 70
     0
 62
     7
  6
Continuous
370
    -3
390
F
347
46
348
0
  0
LAYER
  5
6E
330
2
100
AcDbSymbolTableRecord
100
AcDbLayerTableRecord
  2
Mechanical1
 70
     0
 62
     6
  6
Continuous
370
    -3
390
F
347
46
348
0
  0
LAYER
  5
6F
330
2
100
AcDbSymbolTableRecord
100
AcDbLayerTableRecord
  2
MultiLayer
 70
     0
 62
     9
  6
Continuous
370
    -3
390
F
347
46
348
0
  0
LAYER
  5
70
330
2
100
AcDbSymbolTableRecord
100
AcDbLayerTableRecord
  2
KeepOutLayer
 70
     0
 62
     6
  6
Continuous
370
    -3
390
F
347
46
348
0
  0
LAYER
  5
71
330
2
100
AcDbSymbolTableRecord
100
AcDbLayerTableRecord
  2
PadHoleLayer
 70
     0
 62
   156
  6
Continuous
370
    -3
390
F
347
46
348
0
  0
LAYER
  5
72
330
2
100
AcDbSymbolTableRecord
100
AcDbLayerTableRecord
  2
ViaHoleLayer
 70
     0
 62
    16
  6
Continuous
370
    -3
390
F
347
46
348
0
  0
ENDTAB
  0
TABLE
  2
STYLE
  5
3
330
0
100
AcDbSymbolTable
 70
     1
  0
STYLE
  5
11
330
3
100
AcDbSymbolTableRecord
100
AcDbTextStyleTableRecord
  2
Standard
 70
     0
 40
0.0
 41
1.0
 50
0.0
 71
     0
 42
2.5
  3
txt
  4

  0
ENDTAB
  0
TABLE
  2
VIEW
  5
6
330
0
100
AcDbSymbolTable
 70
     0
  0
ENDTAB
  0
TABLE
  2
UCS
  5
7
330
0
100
AcDbSymbolTable
 70
     0
  0
ENDTAB
  0
TABLE
  2
APPID
  5
9
330
0
100
AcDbSymbolTable
 70
     1
  0
APPID
  5
12
330
9
100
AcDbSymbolTableRecord
100
AcDbRegAppTableRecord
  2
ACAD
 70
     0
  0
ENDTAB
  0
TABLE
  2
DIMSTYLE
  5
A
330
0
100
AcDbSymbolTable
 70
     1
100
AcDbDimStyleTable
  0
DIMSTYLE
105
27
330
A
100
AcDbSymbolTableRecord
100
AcDbDimStyleTableRecord
  2
ISO-25
 70
     0
 41
2.5
 42
0.625
 43
3.75
 44
1.25
 73
     0
 74
     0
 77
     1
 78
     8
140
2.5
141
2.5
143
0.03937007874016
147
0.625
171
     3
172
     1
178
     0
271
     2
272
     2
274
     3
278
    44
283
     0
284
     8
340
11
  0
ENDTAB
  0
TABLE
  2
BLOCK_RECORD
  5
1
330
0
100
AcDbSymbolTable
 70
     1
  0
BLOCK_RECORD
  5
1F
330
1
100
AcDbSymbolTableRecord
100
AcDbBlockTableRecord
  2
*Model_Space
340
22
 70
     0
280
     1
281
     0
  0
BLOCK_RECORD
  5
1B
330
1
100
AcDbSymbolTableRecord
100
AcDbBlockTableRecord
  2
*Paper_Space
340
1E
 70
     0
280
     1
281
     0
  0
BLOCK_RECORD
  5
23
330
1
100
AcDbSymbolTableRecord
100
AcDbBlockTableRecord
  2
*Paper_Space0
340
26
 70
     0
280
     1
281
     0
  0
ENDTAB
  0
ENDSEC
  0
SECTION
  2
BLOCKS
  0
BLOCK
  5
20
330
1F
100
AcDbEntity
  8
0
100
AcDbBlockBegin
  2
*Model_Space
 70
     0
 10
0.0
 20
0.0
 30
0.0
  3
*Model_Space
  1

  0
ENDBLK
  5
21
330
1F
100
AcDbEntity
  8
0
100
AcDbBlockEnd
  0
BLOCK
  5
1C
330
1B
100
AcDbEntity
 67
     1
  8
0
100
AcDbBlockBegin
  2
*Paper_Space
 70
     0
 10
0.0
 20
0.0
 30
0.0
  3
*Paper_Space
  1

  0
ENDBLK
  5
1D
330
1B
100
AcDbEntity
 67
     1
  8
0
100
AcDbBlockEnd
  0
BLOCK
  5
24
330
23
100
AcDbEntity
  8
0
100
AcDbBlockBegin
  2
*Paper_Space0
 70
     0
 10
0.0
 20
0.0
 30
0.0
  3
*Paper_Space0
  1

  0
ENDBLK
  5
25
330
23
100
AcDbEntity
  8
0
100
AcDbBlockEnd
  0
ENDSEC
  0
SECTION
  2
ENTITIES
  0
LWPOLYLINE
  5
73
330
1F
100
AcDbEntity
  8
MultiLayer
100
AcDbPolyline
 90
        2
 70
     0
 43
0.254
 10
204.6732127
 20
100.4315873
 10
212.2728038
 20
100.4315873
  0
LWPOLYLINE
  5
74
330
1F
100
AcDbEntity
  8
MultiLayer
100
AcDbPolyline
 90
        2
 70
     1
 43
0.127
 10
204.6097127
 20
100.4315873
 42
1.0
 10
204.7367127
 20
100.4315873
 42
1.0
  0
LWPOLYLINE
  5
75
330
1F
100
AcDbEntity
  8
MultiLayer
100
AcDbPolyline
 90
        2
 70
     1
 43
0.127
 10
212.2093038
 20
100.4315873
 42
1.0
 10
212.3363038
 20
100.4315873
 42
1.0
  0
LWPOLYLINE
  5
76
330
1F
100
AcDbEntity
  8
MultiLayer
100
AcDbPolyline
 90
        2
 70
     0
 43
0.254
 10
225.0510358
 20
104.3431873
 10
228.3714127
 20
104.3431873
  0
LWPOLYLINE
  5
77
330
1F
100
AcDbEntity
  8
MultiLayer
100
AcDbPolyline
 90
        2
 70
     1
 43
0.127
 10
224.9875358
 20
104.3431873
 42
1.0
 10
225.1145358
 20
104.3431873
 42
1.0
  0
LWPOLYLINE
  5
78
330
1F
100
AcDbEntity
  8
MultiLayer
100
AcDbPolyline
 90
        2
 70
     1
 43
0.127
 10
228.3079127
 20
104.3431873
 42
1.0
 10
228.4349127
 20
104.3431873
 42
1.0
  0
LWPOLYLINE
  5
79
330
1F
100
AcDbEntity
  8
MultiLayer
100
AcDbPolyline
 90
        2
 70
     0
 43
0.254
 10
204.6478127
 20
104.3685873
 10
212.34508966
 20
104.3685873
  0
LWPOLYLINE
  5
7A
330
1F
100
AcDbEntity
  8
MultiLayer
100
AcDbPolyline
 90
        2
 70
     1
 43
0.127
 10
204.5843127
 20
104.3685873
 42
1.0
 10
204.7113127
 20
104.3685873
 42
1.0
  0
LWPOLYLINE
  5
7B
330
1F
100
AcDbEntity
  8
MultiLayer
100
AcDbPolyline
 90
        2
 70
     1
 43
0.127
 10
212.28158966
 20
104.3685873
 42
1.0
 10
212.40858966
 20
104.3685873
 42
1.0
  0
LWPOLYLINE
  5
7C
330
1F
100
AcDbEntity
  8
MultiLayer
100
AcDbPolyline
 90
        2
 70
     0
 43
0.254
 10
225.15835334
 20
100.3553873
 10
228.4222127
 20
100.3553873
  0
LWPOLYLINE
  5
7D
330
1F
100
AcDbEntity
  8
MultiLayer
100
AcDbPolyline
 90
        2
 70
     1
 43
0.127
 10
225.09485334
 20
100.3553873
 42
1.0
 10
225.22185334
 20
100.3553873
 42
1.0
  0
LWPOLYLINE
  5
7E
330
1F
100
AcDbEntity
  8
MultiLayer
100
AcDbPolyline
 90
        2
 70
     1
 43
0.127
 10
228.3587127
 20
100.3553873
 42
1.0
 10
228.4857127
 20
100.3553873
 42
1.0
  0
LWPOLYLINE
  5
7F
330
1F
100
AcDbEntity
  8
MultiLayer
100
AcDbPolyline
 90
        2
 70
     0
 43
0.254
 10
204.6478127
 20
104.3685873
 10
212.34508966
 20
104.3685873
  0
LWPOLYLINE
  5
80
330
1F
100
AcDbEntity
  8
MultiLayer
100
AcDbPolyline
 90
        2
 70
     1
 43
0.127
 10
204.5843127
 20
104.3685873
 42
1.0
 10
204.7113127
 20
104.3685873
 42
1.0
  0
LWPOLYLINE
  5
81
330
1F
100
AcDbEntity
  8
MultiLayer
100
AcDbPolyline
 90
        2
 70
     1
 43
0.127
 10
212.28158966
 20
104.3685873
 42
1.0
 10
212.40858966
 20
104.3685873
 42
1.0
  0
LWPOLYLINE
  5
82
330
1F
100
AcDbEntity
  8
MultiLayer
100
AcDbPolyline
 90
        2
 70
     0
 43
0.254
 10
204.6732127
 20
100.4315873
 10
212.2728038
 20
100.4315873
  0
LWPOLYLINE
  5
83
330
1F
100
AcDbEntity
  8
MultiLayer
100
AcDbPolyline
 90
        2
 70
     1
 43
0.127
 10
204.6097127
 20
100.4315873
 42
1.0
 10
204.7367127
 20
100.4315873
 42
1.0
  0
LWPOLYLINE
  5
84
330
1F
100
AcDbEntity
  8
MultiLayer
100
AcDbPolyline
 90
        2
 70
     1
 43
0.127
 10
212.2093038
 20
100.4315873
 42
1.0
 10
212.3363038
 20
100.4315873
 42
1.0
  0
LWPOLYLINE
  5
85
330
1F
100
AcDbEntity
  8
KeepOutLayer
100
AcDbPolyline
 90
        2
 70
     0
 43
0.254
 10
323.8154966399999
 20
103.84120456
 10
323.81549918
 20
103.8412071
  0
LWPOLYLINE
  5
86
330
1F
100
AcDbEntity
  8
KeepOutLayer
100
AcDbPolyline
 90
        2
 70
     1
 43
0.127
 10
323.75199664
 20
103.84120456
 42
1.0
 10
323.87899664
 20
103.84120456
 42
1.0
  0
LWPOLYLINE
  5
87
330
1F
100
AcDbEntity
  8
KeepOutLayer
100
AcDbPolyline
 90
        2
 70
     1
 43
0.127
 10
323.75199918
 20
103.8412071
 42
1.0
 10
323.87899918
 20
103.8412071
 42
1.0
  0
LWPOLYLINE
  5
88
330
1F
100
AcDbEntity
  8
KeepOutLayer
100
AcDbPolyline
 90
        2
 70
     0
 43
0.254
 10
323.81549918
 20
103.8412071
 10
333.502
 20
103.8412071
  0
LWPOLYLINE
  5
89
330
1F
100
AcDbEntity
  8
KeepOutLayer
100
AcDbPolyline
 90
        2
 70
     1
 43
0.127
 10
323.75199918
 20
103.8412071
 42
1.0
 10
323.87899918
 20
103.8412071
 42
1.0
  0
LWPOLYLINE
  5
8A
330
1F
100
AcDbEntity
  8
KeepOutLayer
100
AcDbPolyline
 90
        2
 70
     1
 43
0.127
 10
333.4385
 20
103.8412071
 42
1.0
 10
333.5655
 20
103.8412071
 42
1.0
  0
LWPOLYLINE
  5
8B
330
1F
100
AcDbEntity
  8
KeepOutLayer
100
AcDbPolyline
 90
        2
 70
     0
 43
0.254
 10
333.502
 20
100.838
 10
333.502
 20
103.8412071
  0
LWPOLYLINE
  5
8C
330
1F
100
AcDbEntity
  8
KeepOutLayer
100
AcDbPolyline
 90
        2
 70
     1
 43
0.127
 10
333.4385
 20
100.838
 42
1.0
 10
333.5655
 20
100.838
 42
1.0
  0
LWPOLYLINE
  5
8D
330
1F
100
AcDbEntity
  8
KeepOutLayer
100
AcDbPolyline
 90
        2
 70
     1
 43
0.127
 10
333.4385
 20
103.8412071
 42
1.0
 10
333.5655
 20
103.8412071
 42
1.0
  0
LWPOLYLINE
  5
8E
330
1F
100
AcDbEntity
  8
KeepOutLayer
100
AcDbPolyline
 90
        2
 70
     0
 43
0.254
 10
323.7992
 20
100.838
 10
333.502
 20
100.838
  0
LWPOLYLINE
  5
8F
330
1F
100
AcDbEntity
  8
KeepOutLayer
100
AcDbPolyline
 90
        2
 70
     1
 43
0.127
 10
323.7357
 20
100.838
 42
1.0
 10
323.8627
 20
100.838
 42
1.0
  0
LWPOLYLINE
  5
90
330
1F
100
AcDbEntity
  8
KeepOutLayer
100
AcDbPolyline
 90
        2
 70
     1
 43
0.127
 10
333.4385
 20
100.838
 42
1.0
 10
333.5655
 20
100.838
 42
1.0
  0
LWPOLYLINE
  5
91
330
1F
100
AcDbEntity
  8
KeepOutLayer
100
AcDbPolyline
 90
        2
 70
     0
 43
0.254
 10
323.7992
 20
100.838
 10
323.7992
 20
103.886
  0
LWPOLYLINE
  5
92
330
1F
100
AcDbEntity
  8
KeepOutLayer
100
AcDbPolyline
 90
        2
 70
     1
 43
0.127
 10
323.7357
 20
100.838
 42
1.0
 10
323.8627
 20
100.838
 42
1.0
  0
LWPOLYLINE
  5
93
330
1F
100
AcDbEntity
  8
KeepOutLayer
100
AcDbPolyline
 90
        2
 70
     1
 43
0.127
 10
323.7357
 20
103.886
 42
1.0
 10
323.8627
 20
103.886
 42
1.0
  0
LWPOLYLINE
  5
94
330
1F
100
AcDbEntity
  8
KeepOutLayer
100
AcDbPolyline
 90
        2
 70
     0
 43
0.254
 10
132.7912
 20
103.6574
 10
132.8166
 20
103.632
  0
LWPOLYLINE
  5
95
330
1F
100
AcDbEntity
  8
KeepOutLayer
100
AcDbPolyline
 90
        2
 70
     1
 43
0.127
 10
132.7277
 20
103.6574
 42
1.0
 10
132.8547
 20
103.6574
 42
1.0
  0
LWPOLYLINE
  5
96
330
1F
100
AcDbEntity
  8
KeepOutLayer
100
AcDbPolyline
 90
        2
 70
     1
 43
0.127
 10
132.7531
 20
103.632
 42
1.0
 10
132.8801
 20
103.632
 42
1.0
  0
LWPOLYLINE
  5
97
330
1F
100
AcDbEntity
  8
KeepOutLayer
100
AcDbPolyline
 90
        2
 70
     0
 43
0.254
 10
126.1618
 20
103.6574
 10
132.7912
 20
103.6574
  0
LWPOLYLINE
  5
98
330
1F
100
AcDbEntity
  8
KeepOutLayer
100
AcDbPolyline
 90
        2
 70
     1
 43
0.127
 10
126.0983
 20
103.6574
 42
1.0
 10
126.2253
 20
103.6574
 42
1.0
  0
LWPOLYLINE
  5
99
330
1F
100
AcDbEntity
  8
KeepOutLayer
100
AcDbPolyline
 90
        2
 70
     1
 43
0.127
 10
132.7277
 20
103.6574
 42
1.0
 10
132.8547
 20
103.6574
 42
1.0
  0
LWPOLYLINE
  5
9A
330
1F
100
AcDbEntity
  8
KeepOutLayer
100
AcDbPolyline
 90
        2
 70
     0
 43
0.254
 10
126.1618
 20
101.1174
 10
126.1618
 20
103.6574
  0
LWPOLYLINE
  5
9B
330
1F
100
AcDbEntity
  8
KeepOutLayer
100
AcDbPolyline
 90
        2
 70
     1
 43
0.127
 10
126.0983
 20
101.1174
 42
1.0
 10
126.2253
 20
101.1174
 42
1.0
  0
LWPOLYLINE
  5
9C
330
1F
100
AcDbEntity
  8
KeepOutLayer
100
AcDbPolyline
 90
        2
 70
     1
 43
0.127
 10
126.0983
 20
103.6574
 42
1.0
 10
126.2253
 20
103.6574
 42
1.0
  0
LWPOLYLINE
  5
9D
330
1F
100
AcDbEntity
  8
KeepOutLayer
100
AcDbPolyline
 90
        2
 70
     0
 43
0.254
 10
126.1618
 20
101.1174
 10
132.7912
 20
101.1174
  0
LWPOLYLINE
  5
9E
330
1F
100
AcDbEntity
  8
KeepOutLayer
100
AcDbPolyline
 90
        2
 70
     1
 43
0.127
 10
126.0983
 20
101.1174
 42
1.0
 10
126.2253
 20
101.1174
 42
1.0
  0
LWPOLYLINE
  5
9F
330
1F
100
AcDbEntity
  8
KeepOutLayer
100
AcDbPolyline
 90
        2
 70
     1
 43
0.127
 10
132.7277
 20
101.1174
 42
1.0
 10
132.8547
 20
101.1174
 42
1.0
  0
LWPOLYLINE
  5
A0
330
1F
100
AcDbEntity
  8
KeepOutLayer
100
AcDbPolyline
 90
        2
 70
     0
 43
0.254
 10
132.7912
 20
101.1174
 10
132.7912
 20
103.5812
  0
LWPOLYLINE
  5
A1
330
1F
100
AcDbEntity
  8
KeepOutLayer
100
AcDbPolyline
 90
        2
 70
     1
 43
0.127
 10
132.7277
 20
101.1174
 42
1.0
 10
132.8547
 20
101.1174
 42
1.0
  0
LWPOLYLINE
  5
A2
330
1F
100
AcDbEntity
  8
KeepOutLayer
100
AcDbPolyline
 90
        2
 70
     1
 43
0.127
 10
132.7277
 20
103.5812
 42
1.0
 10
132.8547
 20
103.5812
 42
1.0
  0
LWPOLYLINE
  5
A3
330
1F
100
AcDbEntity
  8
KeepOutLayer
100
AcDbPolyline
 90
        2
 70
     0
 43
0.254
 10
212.40994602
 20
100.4824
 10
212.53694602
 20
100.3554
  0
LWPOLYLINE
  5
A4
330
1F
100
AcDbEntity
  8
KeepOutLayer
100
AcDbPolyline
 90
        2
 70
     1
 43
0.127
 10
212.34644602
 20
100.4824
 42
1.0
 10
212.47344602
 20
100.4824
 42
1.0
  0
LWPOLYLINE
  5
A5
330
1F
100
AcDbEntity
  8
KeepOutLayer
100
AcDbPolyline
 90
        2
 70
     1
 43
0.127
 10
212.47344602
 20
100.3554
 42
1.0
 10
212.60044602
 20
100.3554
 42
1.0
  0
LWPOLYLINE
  5
A6
330
1F
100
AcDbEntity
  8
KeepOutLayer
100
AcDbPolyline
 90
        2
 70
     0
 43
0.254
 10
204.4446
 20
100.4824
 10
212.40994602
 20
100.4824
  0
LWPOLYLINE
  5
A7
330
1F
100
AcDbEntity
  8
KeepOutLayer
100
AcDbPolyline
 90
        2
 70
     1
 43
0.127
 10
204.3811
 20
100.4824
 42
1.0
 10
204.5081
 20
100.4824
 42
1.0
  0
LWPOLYLINE
  5
A8
330
1F
100
AcDbEntity
  8
KeepOutLayer
100
AcDbPolyline
 90
        2
 70
     1
 43
0.127
 10
212.34644602
 20
100.4824
 42
1.0
 10
212.47344602
 20
100.4824
 42
1.0
  0
LWPOLYLINE
  5
A9
330
1F
100
AcDbEntity
  8
KeepOutLayer
100
AcDbPolyline
 90
        2
 70
     0
 43
0.254
 10
204.6985365
 20
104.3685873
 10
212.34508966
 20
104.3685873
  0
LWPOLYLINE
  5
AA
330
1F
100
AcDbEntity
  8
KeepOutLayer
100
AcDbPolyline
 90
        2
 70
     1
 43
0.127
 10
204.6350365
 20
104.3685873
 42
1.0
 10
204.7620365
 20
104.3685873
 42
1.0
  0
LWPOLYLINE
  5
AB
330
1F
100
AcDbEntity
  8
KeepOutLayer
100
AcDbPolyline
 90
        2
 70
     1
 43
0.127
 10
212.28158966
 20
104.3685873
 42
1.0
 10
212.40858966
 20
104.3685873
 42
1.0
  0
LWPOLYLINE
  5
AC
330
1F
100
AcDbEntity
  8
KeepOutLayer
100
AcDbPolyline
 90
        2
 70
     0
 43
0.254
 10
333.502
 20
100.838
 10
333.502
 20
103.886
  0
LWPOLYLINE
  5
AD
330
1F
100
AcDbEntity
  8
KeepOutLayer
100
AcDbPolyline
 90
        2
 70
     1
 43
0.127
 10
333.4385
 20
100.838
 42
1.0
 10
333.5655
 20
100.838
 42
1.0
  0
LWPOLYLINE
  5
AE
330
1F
100
AcDbEntity
  8
KeepOutLayer
100
AcDbPolyline
 90
        2
 70
     1
 43
0.127
 10
333.4385
 20
103.886
 42
1.0
 10
333.5655
 20
103.886
 42
1.0
  0
LWPOLYLINE
  5
AF
330
1F
100
AcDbEntity
  8
KeepOutLayer
100
AcDbPolyline
 90
        2
 70
     0
 43
0.254
 10
323.7992
 20
100.838
 10
333.502
 20
100.838
  0
LWPOLYLINE
  5
B0
330
1F
100
AcDbEntity
  8
KeepOutLayer
100
AcDbPolyline
 90
        2
 70
     1
 43
0.127
 10
323.7357
 20
100.838
 42
1.0
 10
323.8627
 20
100.838
 42
1.0
  0
LWPOLYLINE
  5
B1
330
1F
100
AcDbEntity
  8
KeepOutLayer
100
AcDbPolyline
 90
        2
 70
     1
 43
0.127
 10
333.4385
 20
100.838
 42
1.0
 10
333.5655
 20
100.838
 42
1.0
  0
LWPOLYLINE
  5
B2
330
1F
100
AcDbEntity
  8
KeepOutLayer
100
AcDbPolyline
 90
        2
 70
     0
 43
0.254
 10
323.7992
 20
100.838
 10
323.7992
 20
103.886
  0
LWPOLYLINE
  5
B3
330
1F
100
AcDbEntity
  8
KeepOutLayer
100
AcDbPolyline
 90
        2
 70
     1
 43
0.127
 10
323.7357
 20
100.838
 42
1.0
 10
323.8627
 20
100.838
 42
1.0
  0
LWPOLYLINE
  5
B4
330
1F
100
AcDbEntity
  8
KeepOutLayer
100
AcDbPolyline
 90
        2
 70
     1
 43
0.127
 10
323.7357
 20
103.886
 42
1.0
 10
323.8627
 20
103.886
 42
1.0
  0
LWPOLYLINE
  5
B5
330
1F
100
AcDbEntity
  8
KeepOutLayer
100
AcDbPolyline
 90
        2
 70
     0
 43
0.254
 10
323.7992
 20
103.886
 10
333.502
 20
103.886
  0
LWPOLYLINE
  5
B6
330
1F
100
AcDbEntity
  8
KeepOutLayer
100
AcDbPolyline
 90
        2
 70
     1
 43
0.127
 10
323.7357
 20
103.886
 42
1.0
 10
323.8627
 20
103.886
 42
1.0
  0
LWPOLYLINE
  5
B7
330
1F
100
AcDbEntity
  8
KeepOutLayer
100
AcDbPolyline
 90
        2
 70
     1
 43
0.127
 10
333.4385
 20
103.886
 42
1.0
 10
333.5655
 20
103.886
 42
1.0
  0
LWPOLYLINE
  5
B8
330
1F
100
AcDbEntity
  8
KeepOutLayer
100
AcDbPolyline
 90
        2
 70
     0
 43
0.254
 10
126.1618
 20
103.6574
 10
126.1872
 20
103.632
  0
LWPOLYLINE
  5
B9
330
1F
100
AcDbEntity
  8
KeepOutLayer
100
AcDbPolyline
 90
        2
 70
     1
 43
0.127
 10
126.0983
 20
103.6574
 42
1.0
 10
126.2253
 20
103.6574
 42
1.0
  0
LWPOLYLINE
  5
BA
330
1F
100
AcDbEntity
  8
KeepOutLayer
100
AcDbPolyline
 90
        2
 70
     1
 43
0.127
 10
126.1237
 20
103.632
 42
1.0
 10
126.2507
 20
103.632
 42
1.0
  0
LWPOLYLINE
  5
BB
330
1F
100
AcDbEntity
  8
KeepOutLayer
100
AcDbPolyline
 90
        2
 70
     0
 43
0.254
 10
126.1872
 20
103.632
 10
132.8166
 20
103.632
  0
LWPOLYLINE
  5
BC
330
1F
100
AcDbEntity
  8
KeepOutLayer
100
AcDbPolyline
 90
        2
 70
     1
 43
0.127
 10
126.1237
 20
103.632
 42
1.0
 10
126.2507
 20
103.632
 42
1.0
  0
LWPOLYLINE
  5
BD
330
1F
100
AcDbEntity
  8
KeepOutLayer
100
AcDbPolyline
 90
        2
 70
     1
 43
0.127
 10
132.7531
 20
103.632
 42
1.0
 10
132.8801
 20
103.632
 42
1.0
  0
LWPOLYLINE
  5
BE
330
1F
100
AcDbEntity
  8
KeepOutLayer
100
AcDbPolyline
 90
        2
 70
     0
 43
0.254
 10
132.8166
 20
101.1428
 10
132.8166
 20
103.632
  0
LWPOLYLINE
  5
BF
330
1F
100
AcDbEntity
  8
KeepOutLayer
100
AcDbPolyline
 90
        2
 70
     1
 43
0.127
 10
132.7531
 20
101.1428
 42
1.0
 10
132.8801
 20
101.1428
 42
1.0
  0
LWPOLYLINE
  5
C0
330
1F
100
AcDbEntity
  8
KeepOutLayer
100
AcDbPolyline
 90
        2
 70
     1
 43
0.127
 10
132.7531
 20
103.632
 42
1.0
 10
132.8801
 20
103.632
 42
1.0
  0
LWPOLYLINE
  5
C1
330
1F
100
AcDbEntity
  8
KeepOutLayer
100
AcDbPolyline
 90
        2
 70
     0
 43
0.254
 10
132.7912
 20
101.1174
 10
132.8166
 20
101.1428
  0
LWPOLYLINE
  5
C2
330
1F
100
AcDbEntity
  8
KeepOutLayer
100
AcDbPolyline
 90
        2
 70
     1
 43
0.127
 10
132.7277
 20
101.1174
 42
1.0
 10
132.8547
 20
101.1174
 42
1.0
  0
LWPOLYLINE
  5
C3
330
1F
100
AcDbEntity
  8
KeepOutLayer
100
AcDbPolyline
 90
        2
 70
     1
 43
0.127
 10
132.7531
 20
101.1428
 42
1.0
 10
132.8801
 20
101.1428
 42
1.0
  0
LWPOLYLINE
  5
C4
330
1F
100
AcDbEntity
  8
KeepOutLayer
100
AcDbPolyline
 90
        2
 70
     0
 43
0.254
 10
126.1618
 20
101.1174
 10
132.7912
 20
101.1174
  0
LWPOLYLINE
  5
C5
330
1F
100
AcDbEntity
  8
KeepOutLayer
100
AcDbPolyline
 90
        2
 70
     1
 43
0.127
 10
126.0983
 20
101.1174
 42
1.0
 10
126.2253
 20
101.1174
 42
1.0
  0
LWPOLYLINE
  5
C6
330
1F
100
AcDbEntity
  8
KeepOutLayer
100
AcDbPolyline
 90
        2
 70
     1
 43
0.127
 10
132.7277
 20
101.1174
 42
1.0
 10
132.8547
 20
101.1174
 42
1.0
  0
LWPOLYLINE
  5
C7
330
1F
100
AcDbEntity
  8
KeepOutLayer
100
AcDbPolyline
 90
        2
 70
     0
 43
0.254
 10
126.1618
 20
101.1174
 10
126.1618
 20
103.6574
  0
LWPOLYLINE
  5
C8
330
1F
100
AcDbEntity
  8
KeepOutLayer
100
AcDbPolyline
 90
        2
 70
     1
 43
0.127
 10
126.0983
 20
101.1174
 42
1.0
 10
126.2253
 20
101.1174
 42
1.0
  0
LWPOLYLINE
  5
C9
330
1F
100
AcDbEntity
  8
KeepOutLayer
100
AcDbPolyline
 90
        2
 70
     1
 43
0.127
 10
126.0983
 20
103.6574
 42
1.0
 10
126.2253
 20
103.6574
 42
1.0
  0
LWPOLYLINE
  5
CA
330
1F
100
AcDbEntity
  8
KeepOutLayer
100
AcDbPolyline
 90
        2
 70
     0
 43
0.254
 10
126.1872
 20
101.1174
 10
126.1872
 20
103.6574
  0
LWPOLYLINE
  5
CB
330
1F
100
AcDbEntity
  8
KeepOutLayer
100
AcDbPolyline
 90
        2
 70
     1
 43
0.127
 10
126.1237
 20
101.1174
 42
1.0
 10
126.2507
 20
101.1174
 42
1.0
  0
LWPOLYLINE
  5
CC
330
1F
100
AcDbEntity
  8
KeepOutLayer
100
AcDbPolyline
 90
        2
 70
     1
 43
0.127
 10
126.1237
 20
103.6574
 42
1.0
 10
126.2507
 20
103.6574
 42
1.0
  0
LWPOLYLINE
  5
CD
330
1F
100
AcDbEntity
  8
KeepOutLayer
100
AcDbPolyline
 90
        2
 70
     0
 43
0.254
 10
126.1872
 20
101.1174
 10
132.8166
 20
101.1174
  0
LWPOLYLINE
  5
CE
330
1F
100
AcDbEntity
  8
KeepOutLayer
100
AcDbPolyline
 90
        2
 70
     1
 43
0.127
 10
126.1237
 20
101.1174
 42
1.0
 10
126.2507
 20
101.1174
 42
1.0
  0
LWPOLYLINE
  5
CF
330
1F
100
AcDbEntity
  8
KeepOutLayer
100
AcDbPolyline
 90
        2
 70
     1
 43
0.127
 10
132.7531
 20
101.1174
 42
1.0
 10
132.8801
 20
101.1174
 42
1.0
  0
LWPOLYLINE
  5
D0
330
1F
100
AcDbEntity
  8
KeepOutLayer
100
AcDbPolyline
 90
        2
 70
     0
 43
0.254
 10
132.8166
 20
101.1174
 10
132.842
 20
101.1428
  0
LWPOLYLINE
  5
D1
330
1F
100
AcDbEntity
  8
KeepOutLayer
100
AcDbPolyline
 90
        2
 70
     1
 43
0.127
 10
132.7531
 20
101.1174
 42
1.0
 10
132.8801
 20
101.1174
 42
1.0
  0
LWPOLYLINE
  5
D2
330
1F
100
AcDbEntity
  8
KeepOutLayer
100
AcDbPolyline
 90
        2
 70
     1
 43
0.127
 10
132.7785
 20
101.1428
 42
1.0
 10
132.9055
 20
101.1428
 42
1.0
  0
LWPOLYLINE
  5
D3
330
1F
100
AcDbEntity
  8
KeepOutLayer
100
AcDbPolyline
 90
        2
 70
     0
 43
0.254
 10
132.842
 20
101.1428
 10
132.842
 20
103.632
  0
LWPOLYLINE
  5
D4
330
1F
100
AcDbEntity
  8
KeepOutLayer
100
AcDbPolyline
 90
        2
 70
     1
 43
0.127
 10
132.7785
 20
101.1428
 42
1.0
 10
132.9055
 20
101.1428
 42
1.0
  0
LWPOLYLINE
  5
D5
330
1F
100
AcDbEntity
  8
KeepOutLayer
100
AcDbPolyline
 90
        2
 70
     1
 43
0.127
 10
132.7785
 20
103.632
 42
1.0
 10
132.9055
 20
103.632
 42
1.0
  0
LWPOLYLINE
  5
D6
330
1F
100
AcDbEntity
  8
KeepOutLayer
100
AcDbPolyline
 90
        2
 70
     0
 43
0.254
 10
126.2126
 20
103.632
 10
132.842
 20
103.632
  0
LWPOLYLINE
  5
D7
330
1F
100
AcDbEntity
  8
KeepOutLayer
100
AcDbPolyline
 90
        2
 70
     1
 43
0.127
 10
126.1491
 20
103.632
 42
1.0
 10
126.2761
 20
103.632
 42
1.0
  0
LWPOLYLINE
  5
D8
330
1F
100
AcDbEntity
  8
KeepOutLayer
100
AcDbPolyline
 90
        2
 70
     1
 43
0.127
 10
132.7785
 20
103.632
 42
1.0
 10
132.9055
 20
103.632
 42
1.0
  0
LWPOLYLINE
  5
D9
330
1F
100
AcDbEntity
  8
KeepOutLayer
100
AcDbPolyline
 90
        2
 70
     0
 43
0.254
 10
126.1872
 20
103.6574
 10
126.2126
 20
103.632
  0
LWPOLYLINE
  5
DA
330
1F
100
AcDbEntity
  8
KeepOutLayer
100
AcDbPolyline
 90
        2
 70
     1
 43
0.127
 10
126.1237
 20
103.6574
 42
1.0
 10
126.2507
 20
103.6574
 42
1.0
  0
LWPOLYLINE
  5
DB
330
1F
100
AcDbEntity
  8
KeepOutLayer
100
AcDbPolyline
 90
        2
 70
     1
 43
0.127
 10
126.1491
 20
103.632
 42
1.0
 10
126.2761
 20
103.632
 42
1.0
  0
LWPOLYLINE
  5
DC
330
1F
100
AcDbEntity
  8
KeepOutLayer
100
AcDbPolyline
 90
        2
 70
     0
 43
0.254
 10
126.1364
 20
101.0666
 10
126.1364
 20
103.6066
  0
LWPOLYLINE
  5
DD
330
1F
100
AcDbEntity
  8
KeepOutLayer
100
AcDbPolyline
 90
        2
 70
     1
 43
0.127
 10
126.0729
 20
101.0666
 42
1.0
 10
126.1999
 20
101.0666
 42
1.0
  0
LWPOLYLINE
  5
DE
330
1F
100
AcDbEntity
  8
KeepOutLayer
100
AcDbPolyline
 90
        2
 70
     1
 43
0.127
 10
126.0729
 20
103.6066
 42
1.0
 10
126.1999
 20
103.6066
 42
1.0
  0
LWPOLYLINE
  5
DF
330
1F
100
AcDbEntity
  8
KeepOutLayer
100
AcDbPolyline
 90
        2
 70
     0
 43
0.254
 10
126.1364
 20
101.0666
 10
132.7658
 20
101.0666
  0
LWPOLYLINE
  5
E0
330
1F
100
AcDbEntity
  8
KeepOutLayer
100
AcDbPolyline
 90
        2
 70
     1
 43
0.127
 10
126.0729
 20
101.0666
 42
1.0
 10
126.1999
 20
101.0666
 42
1.0
  0
LWPOLYLINE
  5
E1
330
1F
100
AcDbEntity
  8
KeepOutLayer
100
AcDbPolyline
 90
        2
 70
     1
 43
0.127
 10
132.7023
 20
101.0666
 42
1.0
 10
132.8293
 20
101.0666
 42
1.0
  0
LWPOLYLINE
  5
E2
330
1F
100
AcDbEntity
  8
KeepOutLayer
100
AcDbPolyline
 90
        2
 70
     0
 43
0.254
 10
132.7658
 20
101.0666
 10
132.7912
 20
101.092
  0
LWPOLYLINE
  5
E3
330
1F
100
AcDbEntity
  8
KeepOutLayer
100
AcDbPolyline
 90
        2
 70
     1
 43
0.127
 10
132.7023
 20
101.0666
 42
1.0
 10
132.8293
 20
101.0666
 42
1.0
  0
LWPOLYLINE
  5
E4
330
1F
100
AcDbEntity
  8
KeepOutLayer
100
AcDbPolyline
 90
        2
 70
     1
 43
0.127
 10
132.7277
 20
101.092
 42
1.0
 10
132.8547
 20
101.092
 42
1.0
  0
LWPOLYLINE
  5
E5
330
1F
100
AcDbEntity
  8
KeepOutLayer
100
AcDbPolyline
 90
        2
 70
     0
 43
0.254
 10
132.7912
 20
101.092
 10
132.7912
 20
103.5812
  0
LWPOLYLINE
  5
E6
330
1F
100
AcDbEntity
  8
KeepOutLayer
100
AcDbPolyline
 90
        2
 70
     1
 43
0.127
 10
132.7277
 20
101.092
 42
1.0
 10
132.8547
 20
101.092
 42
1.0
  0
LWPOLYLINE
  5
E7
330
1F
100
AcDbEntity
  8
KeepOutLayer
100
AcDbPolyline
 90
        2
 70
     1
 43
0.127
 10
132.7277
 20
103.5812
 42
1.0
 10
132.8547
 20
103.5812
 42
1.0
  0
LWPOLYLINE
  5
E8
330
1F
100
AcDbEntity
  8
KeepOutLayer
100
AcDbPolyline
 90
        2
 70
     0
 43
0.254
 10
126.1618
 20
103.5812
 10
132.7912
 20
103.5812
  0
LWPOLYLINE
  5
E9
330
1F
100
AcDbEntity
  8
KeepOutLayer
100
AcDbPolyline
 90
        2
 70
     1
 43
0.127
 10
126.0983
 20
103.5812
 42
1.0
 10
126.2253
 20
103.5812
 42
1.0
  0
LWPOLYLINE
  5
EA
330
1F
100
AcDbEntity
  8
KeepOutLayer
100
AcDbPolyline
 90
        2
 70
     1
 43
0.127
 10
132.7277
 20
103.5812
 42
1.0
 10
132.8547
 20
103.5812
 42
1.0
  0
LWPOLYLINE
  5
EB
330
1F
100
AcDbEntity
  8
KeepOutLayer
100
AcDbPolyline
 90
        2
 70
     0
 43
0.254
 10
126.1364
 20
103.6066
 10
126.1618
 20
103.5812
  0
LWPOLYLINE
  5
EC
330
1F
100
AcDbEntity
  8
KeepOutLayer
100
AcDbPolyline
 90
        2
 70
     1
 43
0.127
 10
126.0729
 20
103.6066
 42
1.0
 10
126.1999
 20
103.6066
 42
1.0
  0
LWPOLYLINE
  5
ED
330
1F
100
AcDbEntity
  8
KeepOutLayer
100
AcDbPolyline
 90
        2
 70
     1
 43
0.127
 10
126.0983
 20
103.5812
 42
1.0
 10
126.2253
 20
103.5812
 42
1.0
  0
LWPOLYLINE
  5
EE
330
1F
100
AcDbEntity
  8
Mechanical1
100
AcDbPolyline
 90
        2
 70
     0
 43
0.254
 10
225.15835334
 20
100.3553873
 10
228.4222127
 20
100.3553873
  0
LWPOLYLINE
  5
EF
330
1F
100
AcDbEntity
  8
Mechanical1
100
AcDbPolyline
 90
        2
 70
     1
 43
0.127
 10
225.09485334
 20
100.3553873
 42
1.0
 10
225.22185334
 20
100.3553873
 42
1.0
  0
LWPOLYLINE
  5
F0
330
1F
100
AcDbEntity
  8
Mechanical1
100
AcDbPolyline
 90
        2
 70
     1
 43
0.127
 10
228.3587127
 20
100.3553873
 42
1.0
 10
228.4857127
 20
100.3553873
 42
1.0
  0
LWPOLYLINE
  5
F1
330
1F
100
AcDbEntity
  8
Mechanical1
100
AcDbPolyline
 90
        2
 70
     0
 43
0.254
 10
225.0510358
 20
104.3431873
 10
228.3714127
 20
104.3431873
  0
LWPOLYLINE
  5
F2
330
1F
100
AcDbEntity
  8
Mechanical1
100
AcDbPolyline
 90
        2
 70
     1
 43
0.127
 10
224.9875358
 20
104.3431873
 42
1.0
 10
225.1145358
 20
104.3431873
 42
1.0
  0
LWPOLYLINE
  5
F3
330
1F
100
AcDbEntity
  8
Mechanical1
100
AcDbPolyline
 90
        2
 70
     1
 43
0.127
 10
228.3079127
 20
104.3431873
 42
1.0
 10
228.4349127
 20
104.3431873
 42
1.0
  0
LWPOLYLINE
  5
F4
330
1F
100
AcDbEntity
  8
Mechanical1
100
AcDbPolyline
 90
        2
 70
     0
 43
0.254
 10
204.6985365
 20
104.3685873
 10
212.34508966
 20
104.3685873
  0
LWPOLYLINE
  5
F5
330
1F
100
AcDbEntity
  8
Mechanical1
100
AcDbPolyline
 90
        2
 70
     1
 43
0.127
 10
204.6350365
 20
104.3685873
 42
1.0
 10
204.7620365
 20
104.3685873
 42
1.0
  0
LWPOLYLINE
  5
F6
330
1F
100
AcDbEntity
  8
Mechanical1
100
AcDbPolyline
 90
        2
 70
     1
 43
0.127
 10
212.28158966
 20
104.3685873
 42
1.0
 10
212.40858966
 20
104.3685873
 42
1.0
  0
LWPOLYLINE
  5
F7
330
1F
100
AcDbEntity
  8
Mechanical1
100
AcDbPolyline
 90
        2
 70
     0
 43
0.254
 10
204.4446
 20
100.4824
 10
212.40994602
 20
100.4824
  0
LWPOLYLINE
  5
F8
330
1F
100
AcDbEntity
  8
Mechanical1
100
AcDbPolyline
 90
        2
 70
     1
 43
0.127
 10
204.3811
 20
100.4824
 42
1.0
 10
204.5081
 20
100.4824
 42
1.0
  0
LWPOLYLINE
  5
F9
330
1F
100
AcDbEntity
  8
Mechanical1
100
AcDbPolyline
 90
        2
 70
     1
 43
0.127
 10
212.34644602
 20
100.4824
 42
1.0
 10
212.47344602
 20
100.4824
 42
1.0
  0
LWPOLYLINE
  5
FA
330
1F
100
AcDbEntity
  8
Mechanical1
100
AcDbPolyline
 90
        2
 70
     0
 43
0.254
 10
212.40994602
 20
100.4824
 10
212.53694602
 20
100.3554
  0
LWPOLYLINE
  5
FB
330
1F
100
AcDbEntity
  8
Mechanical1
100
AcDbPolyline
 90
        2
 70
     1
 43
0.127
 10
212.34644602
 20
100.4824
 42
1.0
 10
212.47344602
 20
100.4824
 42
1.0
  0
LWPOLYLINE
  5
FC
330
1F
100
AcDbEntity
  8
Mechanical1
100
AcDbPolyline
 90
        2
 70
     1
 43
0.127
 10
212.47344602
 20
100.3554
 42
1.0
 10
212.60044602
 20
100.3554
 42
1.0
  0
LWPOLYLINE
  5
FD
330
1F
100
AcDbEntity
  8
Mechanical1
100
AcDbPolyline
 90
        2
 70
     0
 43
0.254
 10
350.68909796
 20
102.0489831
 10
350.68909796
 20
102.5398
  0
LWPOLYLINE
  5
FE
330
1F
100
AcDbEntity
  8
Mechanical1
100
AcDbPolyline
 90
        2
 70
     1
 43
0.127
 10
350.6255979599999
 20
102.0489831
 42
1.0
 10
350.75259796
 20
102.0489831
 42
1.0
  0
LWPOLYLINE
  5
FF
330
1F
100
AcDbEntity
  8
Mechanical1
100
AcDbPolyline
 90
        2
 70
     1
 43
0.127
 10
350.6255979599999
 20
102.5398
 42
1.0
 10
350.75259796
 20
102.5398
 42
1.0
  0
LWPOLYLINE
  5
100
330
1F
100
AcDbEntity
  8
Mechanical1
100
AcDbPolyline
 90
        2
 70
     0
 43
0.254
 10
122.682
 20
95.9866
 10
122.682
 20
108.6866
  0
LWPOLYLINE
  5
101
330
1F
100
AcDbEntity
  8
Mechanical1
100
AcDbPolyline
 90
        2
 70
     1
 43
0.127
 10
122.6185
 20
95.9866
 42
1.0
 10
122.7455
 20
95.9866
 42
1.0
  0
LWPOLYLINE
  5
102
330
1F
100
AcDbEntity
  8
Mechanical1
100
AcDbPolyline
 90
        2
 70
     1
 43
0.127
 10
122.6185
 20
108.6866
 42
1.0
 10
122.7455
 20
108.6866
 42
1.0
  0
LWPOLYLINE
  5
103
330
1F
100
AcDbEntity
  8
Mechanical1
100
AcDbPolyline
 90
        2
 70
     0
 43
0.254
 10
122.682
 20
95.9866
 10
330.518135
 20
95.9866
  0
LWPOLYLINE
  5
104
330
1F
100
AcDbEntity
  8
Mechanical1
100
AcDbPolyline
 90
        2
 70
     1
 43
0.127
 10
122.6185
 20
95.9866
 42
1.0
 10
122.7455
 20
95.9866
 42
1.0
  0
LWPOLYLINE
  5
105
330
1F
100
AcDbEntity
  8
Mechanical1
100
AcDbPolyline
 90
        2
 70
     1
 43
0.127
 10
330.454635
 20
95.9866
 42
1.0
 10
330.5816349999999
 20
95.9866
 42
1.0
  0
LWPOLYLINE
  5
106
330
1F
100
AcDbEntity
  8
Mechanical1
100
AcDbPolyline
 90
        2
 70
     0
 43
0.254
 10
339.24091664
 20
100.965
 10
345.5924
 20
100.965
  0
LWPOLYLINE
  5
107
330
1F
100
AcDbEntity
  8
Mechanical1
100
AcDbPolyline
 90
        2
 70
     1
 43
0.127
 10
339.17741664
 20
100.965
 42
1.0
 10
339.30441664
 20
100.965
 42
1.0
  0
LWPOLYLINE
  5
108
330
1F
100
AcDbEntity
  8
Mechanical1
100
AcDbPolyline
 90
        2
 70
     1
 43
0.127
 10
345.5289
 20
100.965
 42
1.0
 10
345.6559
 20
100.965
 42
1.0
  0
LWPOLYLINE
  5
109
330
1F
100
AcDbEntity
  8
Mechanical1
100
AcDbPolyline
 90
        2
 70
     0
 43
0.254
 10
339.23286992
 20
103.52632076
 10
345.58435328
 20
103.52632076
  0
LWPOLYLINE
  5
10A
330
1F
100
AcDbEntity
  8
Mechanical1
100
AcDbPolyline
 90
        2
 70
     1
 43
0.127
 10
339.16936992
 20
103.52632076
 42
1.0
 10
339.29636992
 20
103.52632076
 42
1.0
  0
LWPOLYLINE
  5
10B
330
1F
100
AcDbEntity
  8
Mechanical1
100
AcDbPolyline
 90
        2
 70
     1
 43
0.127
 10
345.52085328
 20
103.52632076
 42
1.0
 10
345.6478532799999
 20
103.52632076
 42
1.0
  0
LWPOLYLINE
  5
10C
330
1F
100
AcDbEntity
  8
Mechanical1
100
AcDbPolyline
 90
        2
 70
     0
 43
0.254
 10
345.63515328
 20
103.57712076
 10
345.63515328
 20
105.4862
  0
LWPOLYLINE
  5
10D
330
1F
100
AcDbEntity
  8
Mechanical1
100
AcDbPolyline
 90
        2
 70
     1
 43
0.127
 10
345.57165328
 20
103.57712076
 42
1.0
 10
345.69865328
 20
103.57712076
 42
1.0
  0
LWPOLYLINE
  5
10E
330
1F
100
AcDbEntity
  8
Mechanical1
100
AcDbPolyline
 90
        2
 70
     1
 43
0.127
 10
345.57165328
 20
105.4862
 42
1.0
 10
345.69865328
 20
105.4862
 42
1.0
  0
LWPOLYLINE
  5
10F
330
1F
100
AcDbEntity
  8
Mechanical1
100
AcDbPolyline
 90
        2
 70
     0
 43
0.254
 10
345.71135328
 20
99.13619999999999
 10
345.71135328
 20
101.0158
  0
LWPOLYLINE
  5
110
330
1F
100
AcDbEntity
  8
Mechanical1
100
AcDbPolyline
 90
        2
 70
     1
 43
0.127
 10
345.6478532799999
 20
99.13619999999999
 42
1.0
 10
345.77485328
 20
99.13619999999999
 42
1.0
  0
LWPOLYLINE
  5
111
330
1F
100
AcDbEntity
  8
Mechanical1
100
AcDbPolyline
 90
        2
 70
     1
 43
0.127
 10
345.6478532799999
 20
101.0158
 42
1.0
 10
345.77485328
 20
101.0158
 42
1.0
  0
LWPOLYLINE
  5
112
330
1F
100
AcDbEntity
  8
Mechanical1
100
AcDbPolyline
 90
        2
 70
     0
 43
0.254
 10
122.7836
 20
108.7374
 10
330.48719272
 20
108.7374
  0
LWPOLYLINE
  5
113
330
1F
100
AcDbEntity
  8
Mechanical1
100
AcDbPolyline
 90
        2
 70
     1
 43
0.127
 10
122.7201
 20
108.7374
 42
1.0
 10
122.8471
 20
108.7374
 42
1.0
  0
LWPOLYLINE
  5
114
330
1F
100
AcDbEntity
  8
Mechanical1
100
AcDbPolyline
 90
        2
 70
     1
 43
0.127
 10
330.42369272
 20
108.7374
 42
1.0
 10
330.55069272
 20
108.7374
 42
1.0
  0
LWPOLYLINE
  5
115
330
1F
100
AcDbEntity
  8
MultiLayer
100
AcDbPolyline
 90
        2
 70
     0
 43
0.254
 10
204.74279346
 20
100.43657586
 42
-0.9520944517202238
 10
204.69855174
 20
104.3685873
  0
LWPOLYLINE
  5
116
330
1F
100
AcDbEntity
  8
MultiLayer
100
AcDbPolyline
 90
        2
 70
     1
 43
0.127
 10
204.67929346
 20
100.43657586
 42
1.0
 10
204.80629346
 20
100.43657586
 42
1.0
  0
LWPOLYLINE
  5
117
330
1F
100
AcDbEntity
  8
MultiLayer
100
AcDbPolyline
 90
        2
 70
     1
 43
0.127
 10
204.63505174
 20
104.3685873
 42
1.0
 10
204.76205174
 20
104.3685873
 42
1.0
  0
LWPOLYLINE
  5
118
330
1F
100
AcDbEntity
  8
MultiLayer
100
AcDbPolyline
 90
        2
 70
     0
 43
0.254
 10
225.20915334
 20
100.35895854
 42
-0.3775843171821497
 10
212.45066222
 20
100.4416838
  0
LWPOLYLINE
  5
119
330
1F
100
AcDbEntity
  8
MultiLayer
100
AcDbPolyline
 90
        2
 70
     1
 43
0.127
 10
225.14565334
 20
100.35895854
 42
1.0
 10
225.27265334
 20
100.35895854
 42
1.0
  0
LWPOLYLINE
  5
11A
330
1F
100
AcDbEntity
  8
MultiLayer
100
AcDbPolyline
 90
        2
 70
     1
 43
0.127
 10
212.38716222
 20
100.4416838
 42
1.0
 10
212.51416222
 20
100.4416838
 42
1.0
  0
LWPOLYLINE
  5
11B
330
1F
100
AcDbEntity
  8
MultiLayer
100
AcDbPolyline
 90
        2
 70
     0
 43
0.254
 10
212.3744038
 20
104.4201747
 42
-0.3706990280265712
 10
224.95704818
 20
104.34976336
  0
LWPOLYLINE
  5
11C
330
1F
100
AcDbEntity
  8
MultiLayer
100
AcDbPolyline
 90
        2
 70
     1
 43
0.127
 10
212.3109038
 20
104.4201747
 42
1.0
 10
212.4379038
 20
104.4201747
 42
1.0
  0
LWPOLYLINE
  5
11D
330
1F
100
AcDbEntity
  8
MultiLayer
100
AcDbPolyline
 90
        2
 70
     1
 43
0.127
 10
224.89354818
 20
104.34976336
 42
1.0
 10
225.02054818
 20
104.34976336
 42
1.0
  0
LWPOLYLINE
  5
11E
330
1F
100
AcDbEntity
  8
MultiLayer
100
AcDbPolyline
 90
        2
 70
     0
 43
0.254
 10
228.41464604
 20
104.28567154
 42
-0.9432543717032541
 10
228.42225842
 20
100.3553873
  0
LWPOLYLINE
  5
11F
330
1F
100
AcDbEntity
  8
MultiLayer
100
AcDbPolyline
 90
        2
 70
     1
 43
0.127
 10
228.35114604
 20
104.28567154
 42
1.0
 10
228.47814604
 20
104.28567154
 42
1.0
  0
LWPOLYLINE
  5
120
330
1F
100
AcDbEntity
  8
MultiLayer
100
AcDbPolyline
 90
        2
 70
     1
 43
0.127
 10
228.35875842
 20
100.3553873
 42
1.0
 10
228.48575842
 20
100.3553873
 42
1.0
  0
LWPOLYLINE
  5
121
330
1F
100
AcDbEntity
  8
Mechanical1
100
AcDbPolyline
 90
        2
 70
     0
 43
0.254
 10
228.41464604
 20
104.28567154
 42
-0.9432543717032541
 10
228.42225842
 20
100.3553873
  0
LWPOLYLINE
  5
122
330
1F
100
AcDbEntity
  8
Mechanical1
100
AcDbPolyline
 90
        2
 70
     1
 43
0.127
 10
228.35114604
 20
104.28567154
 42
1.0
 10
228.47814604
 20
104.28567154
 42
1.0
  0
LWPOLYLINE
  5
123
330
1F
100
AcDbEntity
  8
Mechanical1
100
AcDbPolyline
 90
        2
 70
     1
 43
0.127
 10
228.35875842
 20
100.3553873
 42
1.0
 10
228.48575842
 20
100.3553873
 42
1.0
  0
LWPOLYLINE
  5
124
330
1F
100
AcDbEntity
  8
Mechanical1
100
AcDbPolyline
 90
        2
 70
     0
 43
0.254
 10
225.20915334
 20
100.35895854
 42
-0.3775843171821497
 10
212.45066222
 20
100.4416838
  0
LWPOLYLINE
  5
125
330
1F
100
AcDbEntity
  8
Mechanical1
100
AcDbPolyline
 90
        2
 70
     1
 43
0.127
 10
225.14565334
 20
100.35895854
 42
1.0
 10
225.27265334
 20
100.35895854
 42
1.0
  0
LWPOLYLINE
  5
126
330
1F
100
AcDbEntity
  8
Mechanical1
100
AcDbPolyline
 90
        2
 70
     1
 43
0.127
 10
212.38716222
 20
100.4416838
 42
1.0
 10
212.51416222
 20
100.4416838
 42
1.0
  0
LWPOLYLINE
  5
127
330
1F
100
AcDbEntity
  8
Mechanical1
100
AcDbPolyline
 90
        2
 70
     0
 43
0.254
 10
212.3744038
 20
104.4201747
 42
-0.3706990280265712
 10
224.95704818
 20
104.34976336
  0
LWPOLYLINE
  5
128
330
1F
100
AcDbEntity
  8
Mechanical1
100
AcDbPolyline
 90
        2
 70
     1
 43
0.127
 10
212.3109038
 20
104.4201747
 42
1.0
 10
212.4379038
 20
104.4201747
 42
1.0
  0
LWPOLYLINE
  5
129
330
1F
100
AcDbEntity
  8
Mechanical1
100
AcDbPolyline
 90
        2
 70
     1
 43
0.127
 10
224.89354818
 20
104.34976336
 42
1.0
 10
225.02054818
 20
104.34976336
 42
1.0
  0
LWPOLYLINE
  5
12A
330
1F
100
AcDbEntity
  8
Mechanical1
100
AcDbPolyline
 90
        2
 70
     0
 43
0.254
 10
204.74279346
 20
100.43657586
 42
-0.9520944517202238
 10
204.69855174
 20
104.3685873
  0
LWPOLYLINE
  5
12B
330
1F
100
AcDbEntity
  8
Mechanical1
100
AcDbPolyline
 90
        2
 70
     1
 43
0.127
 10
204.67929346
 20
100.43657586
 42
1.0
 10
204.80629346
 20
100.43657586
 42
1.0
  0
LWPOLYLINE
  5
12C
330
1F
100
AcDbEntity
  8
Mechanical1
100
AcDbPolyline
 90
        2
 70
     1
 43
0.127
 10
204.63505174
 20
104.3685873
 42
1.0
 10
204.76205174
 20
104.3685873
 42
1.0
  0
LWPOLYLINE
  5
12D
330
1F
100
AcDbEntity
  8
Mechanical1
100
AcDbPolyline
 90
        2
 70
     0
 43
0.254
 10
350.68909796
 20
102.0489831
 42
-0.2779588244038844
 10
345.71135328
 20
99.13619999999999
  0
LWPOLYLINE
  5
12E
330
1F
100
AcDbEntity
  8
Mechanical1
100
AcDbPolyline
 90
        2
 70
     1
 43
0.127
 10
350.6255979599999
 20
102.0489831
 42
1.0
 10
350.75259796
 20
102.0489831
 42
1.0
  0
LWPOLYLINE
  5
12F
330
1F
100
AcDbEntity
  8
Mechanical1
100
AcDbPolyline
 90
        2
 70
     1
 43
0.127
 10
345.6478532799999
 20
99.13619999999999
 42
1.0
 10
345.77485328
 20
99.13619999999999
 42
1.0
  0
LWPOLYLINE
  5
130
330
1F
100
AcDbEntity
  8
Mechanical1
100
AcDbPolyline
 90
        2
 70
     0
 43
0.254
 10
339.24091664
 20
100.965
 42
-0.1070414035156039
 10
330.5280664
 20
95.9766686
  0
LWPOLYLINE
  5
131
330
1F
100
AcDbEntity
  8
Mechanical1
100
AcDbPolyline
 90
        2
 70
     1
 43
0.127
 10
339.17741664
 20
100.965
 42
1.0
 10
339.30441664
 20
100.965
 42
1.0
  0
LWPOLYLINE
  5
132
330
1F
100
AcDbEntity
  8
Mechanical1
100
AcDbPolyline
 90
        2
 70
     1
 43
0.127
 10
330.4645664
 20
95.9766686
 42
1.0
 10
330.5915664
 20
95.9766686
 42
1.0
  0
LWPOLYLINE
  5
133
330
1F
100
AcDbEntity
  8
Mechanical1
100
AcDbPolyline
 90
        2
 70
     0
 43
0.254
 10
330.46175716
 20
108.6866
 42
-0.1093376940364639
 10
339.33393906
 20
103.55343018
  0
LWPOLYLINE
  5
134
330
1F
100
AcDbEntity
  8
Mechanical1
100
AcDbPolyline
 90
        2
 70
     1
 43
0.127
 10
330.39825716
 20
108.6866
 42
1.0
 10
330.52525716
 20
108.6866
 42
1.0
  0
LWPOLYLINE
  5
135
330
1F
100
AcDbEntity
  8
Mechanical1
100
AcDbPolyline
 90
        2
 70
     1
 43
0.127
 10
339.27043906
 20
103.55343018
 42
1.0
 10
339.39743906
 20
103.55343018
 42
1.0
  0
LWPOLYLINE
  5
136
330
1F
100
AcDbEntity
  8
Mechanical1
100
AcDbPolyline
 90
        2
 70
     0
 43
0.254
 10
345.6360753
 20
105.45111244
 42
-0.2815909591680965
 10
350.68909796
 20
102.5398
  0
LWPOLYLINE
  5
137
330
1F
100
AcDbEntity
  8
Mechanical1
100
AcDbPolyline
 90
        2
 70
     1
 43
0.127
 10
345.5725753
 20
105.45111244
 42
1.0
 10
345.6995753
 20
105.45111244
 42
1.0
  0
LWPOLYLINE
  5
138
330
1F
100
AcDbEntity
  8
Mechanical1
100
AcDbPolyline
 90
        2
 70
     1
 43
0.127
 10
350.6255979599999
 20
102.5398
 42
1.0
 10
350.75259796
 20
102.5398
 42
1.0
  0
LINE
  5
139
330
1F
100
AcDbEntity
  8
MultiLayer
100
AcDbLine
 10
212.391879
 20
100.2280063
 30
0.0
 11
204.71257762
 21
100.2584863
 31
0.0
  0
LINE
  5
13A
330
1F
100
AcDbEntity
  8
MultiLayer
100
AcDbLine
 10
204.71257762
 20
100.2584863
 30
0.0
 11
204.51278122
 21
100.26604534
 31
0.0
  0
LINE
  5
13B
330
1F
100
AcDbEntity
  8
MultiLayer
100
AcDbLine
 10
204.51278122
 20
100.26604534
 30
0.0
 11
204.12325698
 21
100.35644394
 31
0.0
  0
LINE
  5
13C
330
1F
100
AcDbEntity
  8
MultiLayer
100
AcDbLine
 10
204.12325698
 20
100.35644394
 30
0.0
 11
203.75785258
 21
100.51885662
 31
0.0
  0
LINE
  5
13D
330
1F
100
AcDbEntity
  8
MultiLayer
100
AcDbLine
 10
203.75785258
 20
100.51885662
 30
0.0
 11
203.429743
 21
100.74743122
 31
0.0
  0
LINE
  5
13E
330
1F
100
AcDbEntity
  8
MultiLayer
100
AcDbLine
 10
203.429743
 20
100.74743122
 30
0.0
 11
203.15076972
 21
101.03391782
 31
0.0
  0
LINE
  5
13F
330
1F
100
AcDbEntity
  8
MultiLayer
100
AcDbLine
 10
203.15076972
 20
101.03391782
 30
0.0
 11
202.93099368
 21
101.36798116
 31
0.0
  0
LINE
  5
140
330
1F
100
AcDbEntity
  8
MultiLayer
100
AcDbLine
 10
202.93099368
 20
101.36798116
 30
0.0
 11
202.77834222
 21
101.73757402
 31
0.0
  0
LINE
  5
141
330
1F
100
AcDbEntity
  8
MultiLayer
100
AcDbLine
 10
202.77834222
 20
101.73757402
 30
0.0
 11
202.6983246
 21
102.1293614
 31
0.0
  0
LINE
  5
142
330
1F
100
AcDbEntity
  8
MultiLayer
100
AcDbLine
 10
202.6983246
 20
102.1293614
 30
0.0
 11
202.69382626
 21
102.52921074
 31
0.0
  0
LINE
  5
143
330
1F
100
AcDbEntity
  8
MultiLayer
100
AcDbLine
 10
202.69382626
 20
102.52921074
 30
0.0
 11
202.76500976
 21
102.92269992
 31
0.0
  0
LINE
  5
144
330
1F
100
AcDbEntity
  8
MultiLayer
100
AcDbLine
 10
202.76500976
 20
102.92269992
 30
0.0
 11
202.90930462
 21
103.29563542
 31
0.0
  0
LINE
  5
145
330
1F
100
AcDbEntity
  8
MultiLayer
100
AcDbLine
 10
202.90930462
 20
103.29563542
 30
0.0
 11
203.12150892
 21
103.63456032
 31
0.0
  0
LINE
  5
146
330
1F
100
AcDbEntity
  8
MultiLayer
100
AcDbLine
 10
203.12150892
 20
103.63456032
 30
0.0
 11
203.39396456
 21
103.9272496
 31
0.0
  0
LINE
  5
147
330
1F
100
AcDbEntity
  8
MultiLayer
100
AcDbLine
 10
203.39396456
 20
103.9272496
 30
0.0
 11
203.71684682
 21
104.16314702
 31
0.0
  0
LINE
  5
148
330
1F
100
AcDbEntity
  8
MultiLayer
100
AcDbLine
 10
203.71684682
 20
104.16314702
 30
0.0
 11
204.07850726
 21
104.33374358
 31
0.0
  0
LINE
  5
149
330
1F
100
AcDbEntity
  8
MultiLayer
100
AcDbLine
 10
204.07850726
 20
104.33374358
 30
0.0
 11
204.4658979
 21
104.43288232
 31
0.0
  0
LINE
  5
14A
330
1F
100
AcDbEntity
  8
MultiLayer
100
AcDbLine
 10
204.4658979
 20
104.43288232
 30
0.0
 11
204.66547078
 21
104.44493716
 31
0.0
  0
LINE
  5
14B
330
1F
100
AcDbEntity
  8
MultiLayer
100
AcDbLine
 10
204.66547078
 20
104.44493716
 30
0.0
 11
204.66547332
 21
104.44493716
 31
0.0
  0
LINE
  5
14C
330
1F
100
AcDbEntity
  8
MultiLayer
100
AcDbLine
 10
204.66547332
 20
104.44493716
 30
0.0
 11
204.67315174
 21
104.4451683
 31
0.0
  0
LINE
  5
14D
330
1F
100
AcDbEntity
  8
MultiLayer
100
AcDbLine
 10
204.67315174
 20
104.4451683
 30
0.0
 11
212.29742656
 21
104.4451683
 31
0.0
  0
LINE
  5
14E
330
1F
100
AcDbEntity
  8
MultiLayer
100
AcDbLine
 10
212.29742656
 20
104.4451683
 30
0.0
 11
212.31731476
 21
104.46643826
 31
0.0
  0
LINE
  5
14F
330
1F
100
AcDbEntity
  8
MultiLayer
100
AcDbLine
 10
212.31731476
 20
104.46643826
 30
0.0
 11
212.64747158
 21
104.74701428
 31
0.0
  0
LINE
  5
150
330
1F
100
AcDbEntity
  8
MultiLayer
100
AcDbLine
 10
212.64747158
 20
104.74701428
 30
0.0
 11
213.35482602
 21
105.24757462
 31
0.0
  0
LINE
  5
151
330
1F
100
AcDbEntity
  8
MultiLayer
100
AcDbLine
 10
213.35482602
 20
105.24757462
 30
0.0
 11
214.10367898
 21
105.68361642
 31
0.0
  0
LINE
  5
152
330
1F
100
AcDbEntity
  8
MultiLayer
100
AcDbLine
 10
214.10367898
 20
105.68361642
 30
0.0
 11
214.88815798
 21
106.05172338
 31
0.0
  0
LINE
  5
153
330
1F
100
AcDbEntity
  8
MultiLayer
100
AcDbLine
 10
214.88815798
 20
106.05172338
 30
0.0
 11
215.70211622
 21
106.3490126
 31
0.0
  0
LINE
  5
154
330
1F
100
AcDbEntity
  8
MultiLayer
100
AcDbLine
 10
215.70211622
 20
106.3490126
 30
0.0
 11
216.5391783
 21
106.5731549
 31
0.0
  0
LINE
  5
155
330
1F
100
AcDbEntity
  8
MultiLayer
100
AcDbLine
 10
216.5391783
 20
106.5731549
 30
0.0
 11
217.3927834
 21
106.72239006
 31
0.0
  0
LINE
  5
156
330
1F
100
AcDbEntity
  8
MultiLayer
100
AcDbLine
 10
217.3927834
 20
106.72239006
 30
0.0
 11
218.25623862
 21
106.79555222
 31
0.0
  0
LINE
  5
157
330
1F
100
AcDbEntity
  8
MultiLayer
100
AcDbLine
 10
218.25623862
 20
106.79555222
 30
0.0
 11
219.12278248
 21
106.7920648
 31
0.0
  0
LINE
  5
158
330
1F
100
AcDbEntity
  8
MultiLayer
100
AcDbLine
 10
219.12278248
 20
106.7920648
 30
0.0
 11
219.98562302
 21
106.71195828
 31
0.0
  0
LINE
  5
159
330
1F
100
AcDbEntity
  8
MultiLayer
100
AcDbLine
 10
219.98562302
 20
106.71195828
 30
0.0
 11
220.83799876
 21
106.5558575
 31
0.0
  0
LINE
  5
15A
330
1F
100
AcDbEntity
  8
MultiLayer
100
AcDbLine
 10
220.83799876
 20
106.5558575
 30
0.0
 11
221.6732295
 21
106.32498928
 31
0.0
  0
LINE
  5
15B
330
1F
100
AcDbEntity
  8
MultiLayer
100
AcDbLine
 10
221.6732295
 20
106.32498928
 30
0.0
 11
222.4847722
 21
106.02115956
 31
0.0
  0
LINE
  5
15C
330
1F
100
AcDbEntity
  8
MultiLayer
100
AcDbLine
 10
222.4847722
 20
106.02115956
 30
0.0
 11
223.26626416
 21
105.64675086
 31
0.0
  0
LINE
  5
15D
330
1F
100
AcDbEntity
  8
MultiLayer
100
AcDbLine
 10
223.26626416
 20
105.64675086
 30
0.0
 11
224.01158144
 21
105.20469942
 31
0.0
  0
LINE
  5
15E
330
1F
100
AcDbEntity
  8
MultiLayer
100
AcDbLine
 10
224.01158144
 20
105.20469942
 30
0.0
 11
224.71488458
 21
104.69846218
 31
0.0
  0
LINE
  5
15F
330
1F
100
AcDbEntity
  8
MultiLayer
100
AcDbLine
 10
224.71488458
 20
104.69846218
 30
0.0
 11
225.04277572
 21
104.41523948
 31
0.0
  0
LINE
  5
160
330
1F
100
AcDbEntity
  8
MultiLayer
100
AcDbLine
 10
225.04277572
 20
104.41523948
 30
0.0
 11
225.04277572
 21
104.41523948
 31
0.0
  0
LINE
  5
161
330
1F
100
AcDbEntity
  8
MultiLayer
100
AcDbLine
 10
225.04277572
 20
104.41523948
 30
0.0
 11
225.0764358
 21
104.4197683
 31
0.0
  0
LINE
  5
162
330
1F
100
AcDbEntity
  8
MultiLayer
100
AcDbLine
 10
225.0764358
 20
104.4197683
 30
0.0
 11
228.3968127
 21
104.4197683
 31
0.0
  0
LINE
  5
163
330
1F
100
AcDbEntity
  8
MultiLayer
100
AcDbLine
 10
228.3968127
 20
104.4197683
 30
0.0
 11
228.44150654
 21
104.41166824
 31
0.0
  0
LINE
  5
164
330
1F
100
AcDbEntity
  8
MultiLayer
100
AcDbLine
 10
228.44150654
 20
104.41166824
 30
0.0
 11
228.6387985
 21
104.39865582
 31
0.0
  0
LINE
  5
165
330
1F
100
AcDbEntity
  8
MultiLayer
100
AcDbLine
 10
228.6387985
 20
104.39865582
 30
0.0
 11
229.0215511
 21
104.29929864
 31
0.0
  0
LINE
  5
166
330
1F
100
AcDbEntity
  8
MultiLayer
100
AcDbLine
 10
229.0215511
 20
104.29929864
 30
0.0
 11
229.37896974
 21
104.13011686
 31
0.0
  0
LINE
  5
167
330
1F
100
AcDbEntity
  8
MultiLayer
100
AcDbLine
 10
229.37896974
 20
104.13011686
 30
0.0
 11
229.69844586
 21
103.89707948
 31
0.0
  0
LINE
  5
168
330
1F
100
AcDbEntity
  8
MultiLayer
100
AcDbLine
 10
229.69844586
 20
103.89707948
 30
0.0
 11
229.9687044
 21
103.60840848
 31
0.0
  0
LINE
  5
169
330
1F
100
AcDbEntity
  8
MultiLayer
100
AcDbLine
 10
229.9687044
 20
103.60840848
 30
0.0
 11
230.1802102
 21
103.27428926
 31
0.0
  0
LINE
  5
16A
330
1F
100
AcDbEntity
  8
MultiLayer
100
AcDbLine
 10
230.1802102
 20
103.27428926
 30
0.0
 11
230.32550328
 21
102.90650996
 31
0.0
  0
LINE
  5
16B
330
1F
100
AcDbEntity
  8
MultiLayer
100
AcDbLine
 10
230.32550328
 20
102.90650996
 30
0.0
 11
230.39945538
 21
102.51804998
 31
0.0
  0
LINE
  5
16C
330
1F
100
AcDbEntity
  8
MultiLayer
100
AcDbLine
 10
230.39945538
 20
102.51804998
 30
0.0
 11
230.39945538
 21
102.3203313
 31
0.0
  0
LINE
  5
16D
330
1F
100
AcDbEntity
  8
MultiLayer
100
AcDbLine
 10
230.39945538
 20
102.3203313
 30
0.0
 11
230.39945538
 21
102.12202588
 31
0.0
  0
LINE
  5
16E
330
1F
100
AcDbEntity
  8
MultiLayer
100
AcDbLine
 10
230.39945538
 20
102.12202588
 30
0.0
 11
230.32506894
 21
101.73245338
 31
0.0
  0
LINE
  5
16F
330
1F
100
AcDbEntity
  8
MultiLayer
100
AcDbLine
 10
230.32506894
 20
101.73245338
 30
0.0
 11
230.17893766
 21
101.36374444
 31
0.0
  0
LINE
  5
170
330
1F
100
AcDbEntity
  8
MultiLayer
100
AcDbLine
 10
230.17893766
 20
101.36374444
 30
0.0
 11
229.96624568
 21
101.02898768
 31
0.0
  0
LINE
  5
171
330
1F
100
AcDbEntity
  8
MultiLayer
100
AcDbLine
 10
229.96624568
 20
101.02898768
 30
0.0
 11
229.69454442
 21
100.74006268
 31
0.0
  0
LINE
  5
172
330
1F
100
AcDbEntity
  8
MultiLayer
100
AcDbLine
 10
229.69454442
 20
100.74006268
 30
0.0
 11
229.37347318
 21
100.50722342
 31
0.0
  0
LINE
  5
173
330
1F
100
AcDbEntity
  8
MultiLayer
100
AcDbLine
 10
229.37347318
 20
100.50722342
 30
0.0
 11
229.01443148
 21
100.33873506
 31
0.0
  0
LINE
  5
174
330
1F
100
AcDbEntity
  8
MultiLayer
100
AcDbLine
 10
229.01443148
 20
100.33873506
 30
0.0
 11
228.6301625
 21
100.24057422
 31
0.0
  0
LINE
  5
175
330
1F
100
AcDbEntity
  8
MultiLayer
100
AcDbLine
 10
228.6301625
 20
100.24057422
 30
0.0
 11
228.43223046
 21
100.22840254
 31
0.0
  0
LINE
  5
176
330
1F
100
AcDbEntity
  8
MultiLayer
100
AcDbLine
 10
228.43223046
 20
100.22840254
 30
0.0
 11
228.43223046
 21
100.22840254
 31
0.0
  0
LINE
  5
177
330
1F
100
AcDbEntity
  8
MultiLayer
100
AcDbLine
 10
228.43223046
 20
100.22840254
 30
0.0
 11
228.4222127
 21
100.2280063
 31
0.0
  0
LINE
  5
178
330
1F
100
AcDbEntity
  8
MultiLayer
100
AcDbLine
 10
228.4222127
 20
100.2280063
 30
0.0
 11
225.25735492
 21
100.2280063
 31
0.0
  0
LINE
  5
179
330
1F
100
AcDbEntity
  8
MultiLayer
100
AcDbLine
 10
225.25735492
 20
100.2280063
 30
0.0
 11
225.24192188
 21
100.21201954
 31
0.0
  0
LINE
  5
17A
330
1F
100
AcDbEntity
  8
MultiLayer
100
AcDbLine
 10
225.24192188
 20
100.21201954
 30
0.0
 11
224.91103608
 21
99.9243874
 31
0.0
  0
LINE
  5
17B
330
1F
100
AcDbEntity
  8
MultiLayer
100
AcDbLine
 10
224.91103608
 20
99.9243874
 30
0.0
 11
224.20044314
 21
99.41064446
 31
0.0
  0
LINE
  5
17C
330
1F
100
AcDbEntity
  8
MultiLayer
100
AcDbLine
 10
224.20044314
 20
99.41064446
 30
0.0
 11
223.44673116
 21
98.96254782
 31
0.0
  0
LINE
  5
17D
330
1F
100
AcDbEntity
  8
MultiLayer
100
AcDbLine
 10
223.44673116
 20
98.96254782
 30
0.0
 11
222.6559428
 21
98.58369665999999
 31
0.0
  0
LINE
  5
17E
330
1F
100
AcDbEntity
  8
MultiLayer
100
AcDbLine
 10
222.6559428
 20
98.58369665999999
 30
0.0
 11
221.83442552
 21
98.27712627999999
 31
0.0
  0
LINE
  5
17F
330
1F
100
AcDbEntity
  8
MultiLayer
100
AcDbLine
 10
221.83442552
 20
98.27712627999999
 30
0.0
 11
220.98877316
 21
98.04529794
 31
0.0
  0
LINE
  5
180
330
1F
100
AcDbEntity
  8
MultiLayer
100
AcDbLine
 10
220.98877316
 20
98.04529794
 30
0.0
 11
220.12576752
 21
97.89007092
 31
0.0
  0
LINE
  5
181
330
1F
100
AcDbEntity
  8
MultiLayer
100
AcDbLine
 10
220.12576752
 20
97.89007092
 30
0.0
 11
219.25233264
 21
97.8126949
 31
0.0
  0
LINE
  5
182
330
1F
100
AcDbEntity
  8
MultiLayer
100
AcDbLine
 10
219.25233264
 20
97.8126949
 30
0.0
 11
218.37547892
 21
97.81378456
 31
0.0
  0
LINE
  5
183
330
1F
100
AcDbEntity
  8
MultiLayer
100
AcDbLine
 10
218.37547892
 20
97.81378456
 30
0.0
 11
217.50223962
 21
97.89333481999999
 31
0.0
  0
LINE
  5
184
330
1F
100
AcDbEntity
  8
MultiLayer
100
AcDbLine
 10
217.50223962
 20
97.89333481999999
 30
0.0
 11
216.6396226
 21
98.05070814
 31
0.0
  0
LINE
  5
185
330
1F
100
AcDbEntity
  8
MultiLayer
100
AcDbLine
 10
216.6396226
 20
98.05070814
 30
0.0
 11
215.79454936
 21
98.28463959999999
 31
0.0
  0
LINE
  5
186
330
1F
100
AcDbEntity
  8
MultiLayer
100
AcDbLine
 10
215.79454936
 20
98.28463959999999
 30
0.0
 11
214.97379916
 21
98.59325213999999
 31
0.0
  0
LINE
  5
187
330
1F
100
AcDbEntity
  8
MultiLayer
100
AcDbLine
 10
214.97379916
 20
98.59325213999999
 30
0.0
 11
214.18395568
 21
98.97406926
 31
0.0
  0
LINE
  5
188
330
1F
100
AcDbEntity
  8
MultiLayer
100
AcDbLine
 10
214.18395568
 20
98.97406926
 30
0.0
 11
213.43135876
 21
99.42404042
 31
0.0
  0
LINE
  5
189
330
1F
100
AcDbEntity
  8
MultiLayer
100
AcDbLine
 10
213.43135876
 20
99.42404042
 30
0.0
 11
212.72204598
 21
99.93954866
 31
0.0
  0
LINE
  5
18A
330
1F
100
AcDbEntity
  8
MultiLayer
100
AcDbLine
 10
212.72204598
 20
99.93954866
 30
0.0
 11
212.391879
 21
100.2280063
 31
0.0
  0
LINE
  5
18B
330
1F
100
AcDbEntity
  8
MultiLayer
100
AcDbLine
 10
212.391879
 20
100.2280063
 30
0.0
 11
212.391879
 21
100.2280063
 31
0.0
  0
LINE
  5
18C
330
1F
100
AcDbEntity
  8
MultiLayer
100
AcDbLine
 10
212.391879
 20
100.2280063
 30
0.0
 11
204.71257762
 21
100.2584863
 31
0.0
  0
LINE
  5
18D
330
1F
100
AcDbEntity
  8
MultiLayer
100
AcDbLine
 10
204.71257762
 20
100.2584863
 30
0.0
 11
204.51278122
 21
100.26604534
 31
0.0
  0
LINE
  5
18E
330
1F
100
AcDbEntity
  8
MultiLayer
100
AcDbLine
 10
204.51278122
 20
100.26604534
 30
0.0
 11
204.12325698
 21
100.35644394
 31
0.0
  0
LINE
  5
18F
330
1F
100
AcDbEntity
  8
MultiLayer
100
AcDbLine
 10
204.12325698
 20
100.35644394
 30
0.0
 11
203.75785258
 21
100.51885662
 31
0.0
  0
LINE
  5
190
330
1F
100
AcDbEntity
  8
MultiLayer
100
AcDbLine
 10
203.75785258
 20
100.51885662
 30
0.0
 11
203.429743
 21
100.74743122
 31
0.0
  0
LINE
  5
191
330
1F
100
AcDbEntity
  8
MultiLayer
100
AcDbLine
 10
203.429743
 20
100.74743122
 30
0.0
 11
203.15076972
 21
101.03391782
 31
0.0
  0
LINE
  5
192
330
1F
100
AcDbEntity
  8
MultiLayer
100
AcDbLine
 10
203.15076972
 20
101.03391782
 30
0.0
 11
202.93099368
 21
101.36798116
 31
0.0
  0
LINE
  5
193
330
1F
100
AcDbEntity
  8
MultiLayer
100
AcDbLine
 10
202.93099368
 20
101.36798116
 30
0.0
 11
202.77834222
 21
101.73757402
 31
0.0
  0
LINE
  5
194
330
1F
100
AcDbEntity
  8
MultiLayer
100
AcDbLine
 10
202.77834222
 20
101.73757402
 30
0.0
 11
202.6983246
 21
102.1293614
 31
0.0
  0
LINE
  5
195
330
1F
100
AcDbEntity
  8
MultiLayer
100
AcDbLine
 10
202.6983246
 20
102.1293614
 30
0.0
 11
202.69382626
 21
102.52921074
 31
0.0
  0
LINE
  5
196
330
1F
100
AcDbEntity
  8
MultiLayer
100
AcDbLine
 10
202.69382626
 20
102.52921074
 30
0.0
 11
202.76500976
 21
102.92269992
 31
0.0
  0
LINE
  5
197
330
1F
100
AcDbEntity
  8
MultiLayer
100
AcDbLine
 10
202.76500976
 20
102.92269992
 30
0.0
 11
202.90930462
 21
103.29563542
 31
0.0
  0
LINE
  5
198
330
1F
100
AcDbEntity
  8
MultiLayer
100
AcDbLine
 10
202.90930462
 20
103.29563542
 30
0.0
 11
203.12150892
 21
103.63456032
 31
0.0
  0
LINE
  5
199
330
1F
100
AcDbEntity
  8
MultiLayer
100
AcDbLine
 10
203.12150892
 20
103.63456032
 30
0.0
 11
203.39396456
 21
103.9272496
 31
0.0
  0
LINE
  5
19A
330
1F
100
AcDbEntity
  8
MultiLayer
100
AcDbLine
 10
203.39396456
 20
103.9272496
 30
0.0
 11
203.71684682
 21
104.16314702
 31
0.0
  0
LINE
  5
19B
330
1F
100
AcDbEntity
  8
MultiLayer
100
AcDbLine
 10
203.71684682
 20
104.16314702
 30
0.0
 11
204.07850726
 21
104.33374358
 31
0.0
  0
LINE
  5
19C
330
1F
100
AcDbEntity
  8
MultiLayer
100
AcDbLine
 10
204.07850726
 20
104.33374358
 30
0.0
 11
204.4658979
 21
104.43288232
 31
0.0
  0
LINE
  5
19D
330
1F
100
AcDbEntity
  8
MultiLayer
100
AcDbLine
 10
204.4658979
 20
104.43288232
 30
0.0
 11
204.66547078
 21
104.44493716
 31
0.0
  0
LINE
  5
19E
330
1F
100
AcDbEntity
  8
MultiLayer
100
AcDbLine
 10
204.66547078
 20
104.44493716
 30
0.0
 11
204.66547332
 21
104.44493716
 31
0.0
  0
LINE
  5
19F
330
1F
100
AcDbEntity
  8
MultiLayer
100
AcDbLine
 10
204.66547332
 20
104.44493716
 30
0.0
 11
204.67315174
 21
104.4451683
 31
0.0
  0
LINE
  5
1A0
330
1F
100
AcDbEntity
  8
MultiLayer
100
AcDbLine
 10
204.67315174
 20
104.4451683
 30
0.0
 11
212.29742656
 21
104.4451683
 31
0.0
  0
LINE
  5
1A1
330
1F
100
AcDbEntity
  8
MultiLayer
100
AcDbLine
 10
212.29742656
 20
104.4451683
 30
0.0
 11
212.31731476
 21
104.46643826
 31
0.0
  0
LINE
  5
1A2
330
1F
100
AcDbEntity
  8
MultiLayer
100
AcDbLine
 10
212.31731476
 20
104.46643826
 30
0.0
 11
212.64747158
 21
104.74701428
 31
0.0
  0
LINE
  5
1A3
330
1F
100
AcDbEntity
  8
MultiLayer
100
AcDbLine
 10
212.64747158
 20
104.74701428
 30
0.0
 11
213.35482602
 21
105.24757462
 31
0.0
  0
LINE
  5
1A4
330
1F
100
AcDbEntity
  8
MultiLayer
100
AcDbLine
 10
213.35482602
 20
105.24757462
 30
0.0
 11
214.10367898
 21
105.68361642
 31
0.0
  0
LINE
  5
1A5
330
1F
100
AcDbEntity
  8
MultiLayer
100
AcDbLine
 10
214.10367898
 20
105.68361642
 30
0.0
 11
214.88815798
 21
106.05172338
 31
0.0
  0
LINE
  5
1A6
330
1F
100
AcDbEntity
  8
MultiLayer
100
AcDbLine
 10
214.88815798
 20
106.05172338
 30
0.0
 11
215.70211622
 21
106.3490126
 31
0.0
  0
LINE
  5
1A7
330
1F
100
AcDbEntity
  8
MultiLayer
100
AcDbLine
 10
215.70211622
 20
106.3490126
 30
0.0
 11
216.5391783
 21
106.5731549
 31
0.0
  0
LINE
  5
1A8
330
1F
100
AcDbEntity
  8
MultiLayer
100
AcDbLine
 10
216.5391783
 20
106.5731549
 30
0.0
 11
217.3927834
 21
106.72239006
 31
0.0
  0
LINE
  5
1A9
330
1F
100
AcDbEntity
  8
MultiLayer
100
AcDbLine
 10
217.3927834
 20
106.72239006
 30
0.0
 11
218.25623862
 21
106.79555222
 31
0.0
  0
LINE
  5
1AA
330
1F
100
AcDbEntity
  8
MultiLayer
100
AcDbLine
 10
218.25623862
 20
106.79555222
 30
0.0
 11
219.12278248
 21
106.7920648
 31
0.0
  0
LINE
  5
1AB
330
1F
100
AcDbEntity
  8
MultiLayer
100
AcDbLine
 10
219.12278248
 20
106.7920648
 30
0.0
 11
219.98562302
 21
106.71195828
 31
0.0
  0
LINE
  5
1AC
330
1F
100
AcDbEntity
  8
MultiLayer
100
AcDbLine
 10
219.98562302
 20
106.71195828
 30
0.0
 11
220.83799876
 21
106.5558575
 31
0.0
  0
LINE
  5
1AD
330
1F
100
AcDbEntity
  8
MultiLayer
100
AcDbLine
 10
220.83799876
 20
106.5558575
 30
0.0
 11
221.6732295
 21
106.32498928
 31
0.0
  0
LINE
  5
1AE
330
1F
100
AcDbEntity
  8
MultiLayer
100
AcDbLine
 10
221.6732295
 20
106.32498928
 30
0.0
 11
222.4847722
 21
106.02115956
 31
0.0
  0
LINE
  5
1AF
330
1F
100
AcDbEntity
  8
MultiLayer
100
AcDbLine
 10
222.4847722
 20
106.02115956
 30
0.0
 11
223.26626416
 21
105.64675086
 31
0.0
  0
LINE
  5
1B0
330
1F
100
AcDbEntity
  8
MultiLayer
100
AcDbLine
 10
223.26626416
 20
105.64675086
 30
0.0
 11
224.01158144
 21
105.20469942
 31
0.0
  0
LINE
  5
1B1
330
1F
100
AcDbEntity
  8
MultiLayer
100
AcDbLine
 10
224.01158144
 20
105.20469942
 30
0.0
 11
224.71488458
 21
104.69846218
 31
0.0
  0
LINE
  5
1B2
330
1F
100
AcDbEntity
  8
MultiLayer
100
AcDbLine
 10
224.71488458
 20
104.69846218
 30
0.0
 11
225.04277572
 21
104.41523948
 31
0.0
  0
LINE
  5
1B3
330
1F
100
AcDbEntity
  8
MultiLayer
100
AcDbLine
 10
225.04277572
 20
104.41523948
 30
0.0
 11
225.04277572
 21
104.41523948
 31
0.0
  0
LINE
  5
1B4
330
1F
100
AcDbEntity
  8
MultiLayer
100
AcDbLine
 10
225.04277572
 20
104.41523948
 30
0.0
 11
225.0764358
 21
104.4197683
 31
0.0
  0
LINE
  5
1B5
330
1F
100
AcDbEntity
  8
MultiLayer
100
AcDbLine
 10
225.0764358
 20
104.4197683
 30
0.0
 11
228.3968127
 21
104.4197683
 31
0.0
  0
LINE
  5
1B6
330
1F
100
AcDbEntity
  8
MultiLayer
100
AcDbLine
 10
228.3968127
 20
104.4197683
 30
0.0
 11
228.44150654
 21
104.41166824
 31
0.0
  0
LINE
  5
1B7
330
1F
100
AcDbEntity
  8
MultiLayer
100
AcDbLine
 10
228.44150654
 20
104.41166824
 30
0.0
 11
228.6387985
 21
104.39865582
 31
0.0
  0
LINE
  5
1B8
330
1F
100
AcDbEntity
  8
MultiLayer
100
AcDbLine
 10
228.6387985
 20
104.39865582
 30
0.0
 11
229.0215511
 21
104.29929864
 31
0.0
  0
LINE
  5
1B9
330
1F
100
AcDbEntity
  8
MultiLayer
100
AcDbLine
 10
229.0215511
 20
104.29929864
 30
0.0
 11
229.37896974
 21
104.13011686
 31
0.0
  0
LINE
  5
1BA
330
1F
100
AcDbEntity
  8
MultiLayer
100
AcDbLine
 10
229.37896974
 20
104.13011686
 30
0.0
 11
229.69844586
 21
103.89707948
 31
0.0
  0
LINE
  5
1BB
330
1F
100
AcDbEntity
  8
MultiLayer
100
AcDbLine
 10
229.69844586
 20
103.89707948
 30
0.0
 11
229.9687044
 21
103.60840848
 31
0.0
  0
LINE
  5
1BC
330
1F
100
AcDbEntity
  8
MultiLayer
100
AcDbLine
 10
229.9687044
 20
103.60840848
 30
0.0
 11
230.1802102
 21
103.27428926
 31
0.0
  0
LINE
  5
1BD
330
1F
100
AcDbEntity
  8
MultiLayer
100
AcDbLine
 10
230.1802102
 20
103.27428926
 30
0.0
 11
230.32550328
 21
102.90650996
 31
0.0
  0
LINE
  5
1BE
330
1F
100
AcDbEntity
  8
MultiLayer
100
AcDbLine
 10
230.32550328
 20
102.90650996
 30
0.0
 11
230.39945538
 21
102.51804998
 31
0.0
  0
LINE
  5
1BF
330
1F
100
AcDbEntity
  8
MultiLayer
100
AcDbLine
 10
230.39945538
 20
102.51804998
 30
0.0
 11
230.39945538
 21
102.3203313
 31
0.0
  0
LINE
  5
1C0
330
1F
100
AcDbEntity
  8
MultiLayer
100
AcDbLine
 10
230.39945538
 20
102.3203313
 30
0.0
 11
230.39945538
 21
102.12202588
 31
0.0
  0
LINE
  5
1C1
330
1F
100
AcDbEntity
  8
MultiLayer
100
AcDbLine
 10
230.39945538
 20
102.12202588
 30
0.0
 11
230.32506894
 21
101.73245338
 31
0.0
  0
LINE
  5
1C2
330
1F
100
AcDbEntity
  8
MultiLayer
100
AcDbLine
 10
230.32506894
 20
101.73245338
 30
0.0
 11
230.17893766
 21
101.36374444
 31
0.0
  0
LINE
  5
1C3
330
1F
100
AcDbEntity
  8
MultiLayer
100
AcDbLine
 10
230.17893766
 20
101.36374444
 30
0.0
 11
229.96624568
 21
101.02898768
 31
0.0
  0
LINE
  5
1C4
330
1F
100
AcDbEntity
  8
MultiLayer
100
AcDbLine
 10
229.96624568
 20
101.02898768
 30
0.0
 11
229.69454442
 21
100.74006268
 31
0.0
  0
LINE
  5
1C5
330
1F
100
AcDbEntity
  8
MultiLayer
100
AcDbLine
 10
229.69454442
 20
100.74006268
 30
0.0
 11
229.37347318
 21
100.50722342
 31
0.0
  0
LINE
  5
1C6
330
1F
100
AcDbEntity
  8
MultiLayer
100
AcDbLine
 10
229.37347318
 20
100.50722342
 30
0.0
 11
229.01443148
 21
100.33873506
 31
0.0
  0
LINE
  5
1C7
330
1F
100
AcDbEntity
  8
MultiLayer
100
AcDbLine
 10
229.01443148
 20
100.33873506
 30
0.0
 11
228.6301625
 21
100.24057422
 31
0.0
  0
LINE
  5
1C8
330
1F
100
AcDbEntity
  8
MultiLayer
100
AcDbLine
 10
228.6301625
 20
100.24057422
 30
0.0
 11
228.43223046
 21
100.22840254
 31
0.0
  0
LINE
  5
1C9
330
1F
100
AcDbEntity
  8
MultiLayer
100
AcDbLine
 10
228.43223046
 20
100.22840254
 30
0.0
 11
228.43223046
 21
100.22840254
 31
0.0
  0
LINE
  5
1CA
330
1F
100
AcDbEntity
  8
MultiLayer
100
AcDbLine
 10
228.43223046
 20
100.22840254
 30
0.0
 11
228.4222127
 21
100.2280063
 31
0.0
  0
LINE
  5
1CB
330
1F
100
AcDbEntity
  8
MultiLayer
100
AcDbLine
 10
228.4222127
 20
100.2280063
 30
0.0
 11
225.25735492
 21
100.2280063
 31
0.0
  0
LINE
  5
1CC
330
1F
100
AcDbEntity
  8
MultiLayer
100
AcDbLine
 10
225.25735492
 20
100.2280063
 30
0.0
 11
225.24192188
 21
100.21201954
 31
0.0
  0
LINE
  5
1CD
330
1F
100
AcDbEntity
  8
MultiLayer
100
AcDbLine
 10
225.24192188
 20
100.21201954
 30
0.0
 11
224.91103608
 21
99.9243874
 31
0.0
  0
LINE
  5
1CE
330
1F
100
AcDbEntity
  8
MultiLayer
100
AcDbLine
 10
224.91103608
 20
99.9243874
 30
0.0
 11
224.20044314
 21
99.41064446
 31
0.0
  0
LINE
  5
1CF
330
1F
100
AcDbEntity
  8
MultiLayer
100
AcDbLine
 10
224.20044314
 20
99.41064446
 30
0.0
 11
223.44673116
 21
98.96254782
 31
0.0
  0
LINE
  5
1D0
330
1F
100
AcDbEntity
  8
MultiLayer
100
AcDbLine
 10
223.44673116
 20
98.96254782
 30
0.0
 11
222.6559428
 21
98.58369665999999
 31
0.0
  0
LINE
  5
1D1
330
1F
100
AcDbEntity
  8
MultiLayer
100
AcDbLine
 10
222.6559428
 20
98.58369665999999
 30
0.0
 11
221.83442552
 21
98.27712627999999
 31
0.0
  0
LINE
  5
1D2
330
1F
100
AcDbEntity
  8
MultiLayer
100
AcDbLine
 10
221.83442552
 20
98.27712627999999
 30
0.0
 11
220.98877316
 21
98.04529794
 31
0.0
  0
LINE
  5
1D3
330
1F
100
AcDbEntity
  8
MultiLayer
100
AcDbLine
 10
220.98877316
 20
98.04529794
 30
0.0
 11
220.12576752
 21
97.89007092
 31
0.0
  0
LINE
  5
1D4
330
1F
100
AcDbEntity
  8
MultiLayer
100
AcDbLine
 10
220.12576752
 20
97.89007092
 30
0.0
 11
219.25233264
 21
97.8126949
 31
0.0
  0
LINE
  5
1D5
330
1F
100
AcDbEntity
  8
MultiLayer
100
AcDbLine
 10
219.25233264
 20
97.8126949
 30
0.0
 11
218.37547892
 21
97.81378456
 31
0.0
  0
LINE
  5
1D6
330
1F
100
AcDbEntity
  8
MultiLayer
100
AcDbLine
 10
218.37547892
 20
97.81378456
 30
0.0
 11
217.50223962
 21
97.89333481999999
 31
0.0
  0
LINE
  5
1D7
330
1F
100
AcDbEntity
  8
MultiLayer
100
AcDbLine
 10
217.50223962
 20
97.89333481999999
 30
0.0
 11
216.6396226
 21
98.05070814
 31
0.0
  0
LINE
  5
1D8
330
1F
100
AcDbEntity
  8
MultiLayer
100
AcDbLine
 10
216.6396226
 20
98.05070814
 30
0.0
 11
215.79454936
 21
98.28463959999999
 31
0.0
  0
LINE
  5
1D9
330
1F
100
AcDbEntity
  8
MultiLayer
100
AcDbLine
 10
215.79454936
 20
98.28463959999999
 30
0.0
 11
214.97379916
 21
98.59325213999999
 31
0.0
  0
LINE
  5
1DA
330
1F
100
AcDbEntity
  8
MultiLayer
100
AcDbLine
 10
214.97379916
 20
98.59325213999999
 30
0.0
 11
214.18395568
 21
98.97406926
 31
0.0
  0
LINE
  5
1DB
330
1F
100
AcDbEntity
  8
MultiLayer
100
AcDbLine
 10
214.18395568
 20
98.97406926
 30
0.0
 11
213.43135876
 21
99.42404042
 31
0.0
  0
LINE
  5
1DC
330
1F
100
AcDbEntity
  8
MultiLayer
100
AcDbLine
 10
213.43135876
 20
99.42404042
 30
0.0
 11
212.72204598
 21
99.93954866
 31
0.0
  0
LINE
  5
1DD
330
1F
100
AcDbEntity
  8
MultiLayer
100
AcDbLine
 10
212.72204598
 20
99.93954866
 30
0.0
 11
212.391879
 21
100.2280063
 31
0.0
  0
LINE
  5
1DE
330
1F
100
AcDbEntity
  8
MultiLayer
100
AcDbLine
 10
212.391879
 20
100.2280063
 30
0.0
 11
212.391879
 21
100.2280063
 31
0.0
  0
LINE
  5
1DF
330
1F
100
AcDbEntity
  8
MultiLayer
100
AcDbLine
 10
333.52739746
 20
100.8634
 30
0.0
 11
323.79009664
 21
100.8634
 31
0.0
  0
LINE
  5
1E0
330
1F
100
AcDbEntity
  8
MultiLayer
100
AcDbLine
 10
323.79009664
 20
100.8634
 30
0.0
 11
323.79009664
 21
103.86660456
 31
0.0
  0
LINE
  5
1E1
330
1F
100
AcDbEntity
  8
MultiLayer
100
AcDbLine
 10
323.79009664
 20
103.86660456
 30
0.0
 11
323.8154966399999
 21
103.84120456
 31
0.0
  0
LINE
  5
1E2
330
1F
100
AcDbEntity
  8
MultiLayer
100
AcDbLine
 10
323.8154966399999
 20
103.84120456
 30
0.0
 11
333.52739746
 21
103.86660456
 31
0.0
  0
LINE
  5
1E3
330
1F
100
AcDbEntity
  8
MultiLayer
100
AcDbLine
 10
333.52739746
 20
103.86660456
 30
0.0
 11
333.52739746
 21
100.8634
 31
0.0
  0
LINE
  5
1E4
330
1F
100
AcDbEntity
  8
MultiLayer
100
AcDbLine
 10
132.7658
 20
101.0666
 30
0.0
 11
126.1364
 21
101.0666
 31
0.0
  0
LINE
  5
1E5
330
1F
100
AcDbEntity
  8
MultiLayer
100
AcDbLine
 10
126.1364
 20
101.0666
 30
0.0
 11
126.1364
 21
103.6066
 31
0.0
  0
LINE
  5
1E6
330
1F
100
AcDbEntity
  8
MultiLayer
100
AcDbLine
 10
126.1364
 20
103.6066
 30
0.0
 11
126.1618
 21
103.5812
 31
0.0
  0
LINE
  5
1E7
330
1F
100
AcDbEntity
  8
MultiLayer
100
AcDbLine
 10
126.1618
 20
103.5812
 30
0.0
 11
132.7912
 21
103.5812
 31
0.0
  0
LINE
  5
1E8
330
1F
100
AcDbEntity
  8
MultiLayer
100
AcDbLine
 10
132.7912
 20
103.5812
 30
0.0
 11
132.7912
 21
101.092
 31
0.0
  0
LINE
  5
1E9
330
1F
100
AcDbEntity
  8
MultiLayer
100
AcDbLine
 10
132.7912
 20
101.092
 30
0.0
 11
132.7658
 21
101.0666
 31
0.0
  0
LINE
  5
1EA
330
1F
100
AcDbEntity
  8
MultiLayer
100
AcDbLine
 10
132.8166
 20
101.1174
 30
0.0
 11
126.1872
 21
101.1174
 31
0.0
  0
LINE
  5
1EB
330
1F
100
AcDbEntity
  8
MultiLayer
100
AcDbLine
 10
126.1872
 20
101.1174
 30
0.0
 11
126.1872
 21
103.6574
 31
0.0
  0
LINE
  5
1EC
330
1F
100
AcDbEntity
  8
MultiLayer
100
AcDbLine
 10
126.1872
 20
103.6574
 30
0.0
 11
126.2126
 21
103.632
 31
0.0
  0
LINE
  5
1ED
330
1F
100
AcDbEntity
  8
MultiLayer
100
AcDbLine
 10
126.2126
 20
103.632
 30
0.0
 11
132.842
 21
103.632
 31
0.0
  0
LINE
  5
1EE
330
1F
100
AcDbEntity
  8
MultiLayer
100
AcDbLine
 10
132.842
 20
103.632
 30
0.0
 11
132.842
 21
101.1428
 31
0.0
  0
LINE
  5
1EF
330
1F
100
AcDbEntity
  8
MultiLayer
100
AcDbLine
 10
132.842
 20
101.1428
 30
0.0
 11
132.8166
 21
101.1174
 31
0.0
  0
LINE
  5
1F0
330
1F
100
AcDbEntity
  8
MultiLayer
100
AcDbLine
 10
132.7912
 20
101.1174
 30
0.0
 11
126.1618
 21
101.1174
 31
0.0
  0
LINE
  5
1F1
330
1F
100
AcDbEntity
  8
MultiLayer
100
AcDbLine
 10
126.1618
 20
101.1174
 30
0.0
 11
126.1618
 21
103.6574
 31
0.0
  0
LINE
  5
1F2
330
1F
100
AcDbEntity
  8
MultiLayer
100
AcDbLine
 10
126.1618
 20
103.6574
 30
0.0
 11
126.1872
 21
103.632
 31
0.0
  0
LINE
  5
1F3
330
1F
100
AcDbEntity
  8
MultiLayer
100
AcDbLine
 10
126.1872
 20
103.632
 30
0.0
 11
132.8166
 21
103.632
 31
0.0
  0
LINE
  5
1F4
330
1F
100
AcDbEntity
  8
MultiLayer
100
AcDbLine
 10
132.8166
 20
103.632
 30
0.0
 11
132.8166
 21
101.1428
 31
0.0
  0
LINE
  5
1F5
330
1F
100
AcDbEntity
  8
MultiLayer
100
AcDbLine
 10
132.8166
 20
101.1428
 30
0.0
 11
132.7912
 21
101.1174
 31
0.0
  0
LINE
  5
1F6
330
1F
100
AcDbEntity
  8
MultiLayer
100
AcDbLine
 10
333.502
 20
100.838
 30
0.0
 11
323.7992
 21
100.838
 31
0.0
  0
LINE
  5
1F7
330
1F
100
AcDbEntity
  8
MultiLayer
100
AcDbLine
 10
323.7992
 20
100.838
 30
0.0
 11
323.7992
 21
103.886
 31
0.0
  0
LINE
  5
1F8
330
1F
100
AcDbEntity
  8
MultiLayer
100
AcDbLine
 10
323.7992
 20
103.886
 30
0.0
 11
333.502
 21
103.886
 31
0.0
  0
LINE
  5
1F9
330
1F
100
AcDbEntity
  8
MultiLayer
100
AcDbLine
 10
333.502
 20
103.886
 30
0.0
 11
333.502
 21
100.838
 31
0.0
  0
ENDSEC
  0
SECTION
  2
OBJECTS
  0
DICTIONARY
  5
C
330
0
100
AcDbDictionary
281
     1
  3
ACAD_DETAILVIEWSTYLE
350
201
  3
ACAD_GROUP
350
D
  3
ACAD_LAYOUT
350
1A
  3
ACAD_MATERIAL
350
43
  3
ACAD_MLEADERSTYLE
350
6B
  3
ACAD_MLINESTYLE
350
17
  3
ACAD_PLOTSETTINGS
350
19
  3
ACAD_PLOTSTYLENAME
350
E
  3
ACAD_SCALELIST
350
47
  3
ACAD_SECTIONVIEWSTYLE
350
202
  3
ACAD_TABLESTYLE
350
69
  3
ACAD_VISUALSTYLE
350
2A
  3
ACDB_RECOMPOSE_DATA
350
1FE
  3
AcDbVariableDictionary
350
1FA
  0
SUN
  5
6D
330
29
100
AcDbSun
 90
        1
290
     0
 63
     7
421
 16777215
 40
1.0
291
     1
 91
  2455826
 92
 54000000
292
     0
 70
     2
 71
   256
280
     1
  0
DICTIONARY
  5
201
102
{ACAD_REACTORS
330
C
102
}
330
C
100
AcDbDictionary
281
     1
  0
DICTIONARY
  5
D
102
{ACAD_REACTORS
330
C
102
}
330
C
100
AcDbDictionary
281
     1
  0
DICTIONARY
  5
1A
102
{ACAD_REACTORS
330
C
102
}
330
C
100
AcDbDictionary
281
     1
  3
Layout1
350
1E
  3
Layout2
350
26
  3
Model
350
22
  0
DICTIONARY
  5
43
102
{ACAD_REACTORS
330
C
102
}
330
C
100
AcDbDictionary
281
     1
  3
ByBlock
350
45
  3
ByLayer
350
44
  3
Global
350
46
  0
DICTIONARY
  5
6B
102
{ACAD_REACTORS
330
C
102
}
330
C
100
AcDbDictionary
281
     1
  3
Standard
350
6C
  0
DICTIONARY
  5
17
102
{ACAD_REACTORS
330
C
102
}
330
C
100
AcDbDictionary
281
     1
  3
Standard
350
18
  0
DICTIONARY
  5
19
102
{ACAD_REACTORS
330
C
102
}
330
C
100
AcDbDictionary
281
     1
  0
ACDBDICTIONARYWDFLT
  5
E
102
{ACAD_REACTORS
330
C
102
}
330
C
100
AcDbDictionary
281
     1
  3
Normal
350
F
100
AcDbDictionaryWithDefault
340
F
  0
DICTIONARY
  5
47
102
{ACAD_REACTORS
330
C
102
}
330
C
100
AcDbDictionary
281
     1
  3
A0
350
48
  3
A1
350
49
  3
A2
350
4A
  3
A3
350
4B
  3
A4
350
4C
  3
A5
350
4D
  3
A6
350
4E
  3
A7
350
4F
  3
A8
350
50
  3
A9
350
51
  3
B0
350
52
  3
B1
350
53
  3
B2
350
54
  3
B3
350
55
  3
B4
350
56
  3
B5
350
57
  3
B6
350
58
  3
B7
350
59
  3
B8
350
5A
  3
B9
350
5B
  3
C0
350
5C
  3
C1
350
5D
  3
C2
350
5E
  3
C3
350
5F
  3
C4
350
60
  3
C5
350
61
  3
C6
350
62
  3
C7
350
63
  3
C8
350
64
  3
C9
350
65
  3
D0
350
66
  3
D1
350
67
  3
D2
350
68
  0
DICTIONARY
  5
202
102
{ACAD_REACTORS
330
C
102
}
330
C
100
AcDbDictionary
281
     1
  0
DICTIONARY
  5
69
102
{ACAD_REACTORS
330
C
102
}
330
C
100
AcDbDictionary
281
     1
  3
Standard
350
6A
  0
DICTIONARY
  5
2A
102
{ACAD_REACTORS
330
C
102
}
330
C
100
AcDbDictionary
281
     1
  3
2dWireframe
350
2F
  3
Basic
350
32
  3
Brighten
350
36
  3
ColorChange
350
3A
  3
Conceptual
350
34
  3
Dim
350
35
  3
EdgeColorOff
350
3D
  3
Facepattern
350
39
  3
Flat
350
2B
  3
FlatWithEdges
350
2C
  3
Gouraud
350
2D
  3
GouraudWithEdges
350
2E
  3
Hidden
350
31
  3
JitterOff
350
3B
  3
Linepattern
350
38
  3
OverhangOff
350
3C
  3
Realistic
350
33
  3
Shaded
350
42
  3
Shaded with edges
350
41
  3
Shades of Gray
350
3E
  3
Sketchy
350
3F
  3
Thicken
350
37
  3
Wireframe
350
30
  3
X-Ray
350
40
  0
XRECORD
  5
1FE
102
{ACAD_REACTORS
330
C
102
}
330
C
100
AcDbXrecord
280
     1
 90
        1
330
6A
  0
DICTIONARY
  5
1FA
102
{ACAD_REACTORS
330
C
102
}
330
C
100
AcDbDictionary
281
     1
  3
CANNOSCALE
350
1FB
  3
CMLEADERSTYLE
350
200
  3
CTABLESTYLE
350
1FF
  0
LAYOUT
  5
1E
102
{ACAD_REACTORS
330
1A
102
}
330
1A
100
AcDbPlotSettings
  1

  2
none_device
  4

  6

 40
0.0
 41
0.0
 42
0.0
 43
0.0
 44
0.0
 45
0.0
 46
0.0
 47
0.0
 48
0.0
 49
0.0
140
0.0
141
0.0
142
1.0
143
1.0
 70
   688
 72
     1
 73
     0
 74
     5
  7

 75
    16
 76
     0
 77
     2
 78
   300
147
1.0
148
0.0
149
0.0
100
AcDbLayout
  1
Layout1
 70
     1
 71
     1
 10
0.0
 20
0.0
 11
420.0
 21
297.0
 12
0.0
 22
0.0
 32
0.0
 14
1.000000000000000E+20
 24
1.000000000000000E+20
 34
1.000000000000000E+20
 15
-1.000000000000000E+20
 25
-1.000000000000000E+20
 35
-1.000000000000000E+20
146
0.0
 13
0.0
 23
0.0
 33
0.0
 16
1.0
 26
0.0
 36
0.0
 17
0.0
 27
1.0
 37
0.0
 76
     0
330
1B
  0
LAYOUT
  5
26
102
{ACAD_REACTORS
330
1A
102
}
330
1A
100
AcDbPlotSettings
  1

  2
none_device
  4

  6

 40
0.0
 41
0.0
 42
0.0
 43
0.0
 44
0.0
 45
0.0
 46
0.0
 47
0.0
 48
0.0
 49
0.0
140
0.0
141
0.0
142
1.0
143
1.0
 70
   688
 72
     1
 73
     0
 74
     5
  7

 75
    16
 76
     0
 77
     2
 78
   300
147
1.0
148
0.0
149
0.0
100
AcDbLayout
  1
Layout2
 70
     1
 71
     2
 10
0.0
 20
0.0
 11
0.0
 21
0.0
 12
0.0
 22
0.0
 32
0.0
 14
0.0
 24
0.0
 34
0.0
 15
0.0
 25
0.0
 35
0.0
146
0.0
 13
0.0
 23
0.0
 33
0.0
 16
1.0
 26
0.0
 36
0.0
 17
0.0
 27
1.0
 37
0.0
 76
     0
330
23
  0
LAYOUT
  5
22
102
{ACAD_REACTORS
330
1A
102
}
330
1A
100
AcDbPlotSettings
  1

  2
none_device
  4
Letter_(8.50_x_11.00_Inches)
  6

 40
6.35
 41
6.35
 42
6.35000508
 43
6.35000508
 44
215.9
 45
279.4
 46
0.0
 47
0.0
 48
0.0
 49
0.0
140
0.0
141
0.0
142
1.0
143
1.0
 70
  1712
 72
     1
 73
     0
 74
     0
  7

 75
     0
 76
     0
 77
     2
 78
   300
147
1.0
148
0.0
149
0.0
100
AcDbLayout
  1
Model
 70
     1
 71
     0
 10
122.555
 20
95.8496686
 11
350.81609796
 21
108.8644
 12
0.0
 22
0.0
 32
0.0
 14
1.000000000000000E+20
 24
1.000000000000000E+20
 34
1.000000000000000E+20
 15
-1.000000000000000E+20
 25
-1.000000000000000E+20
 35
-1.000000000000000E+20
146
0.0
 13
0.0
 23
0.0
 33
0.0
 16
1.0
 26
0.0
 36
0.0
 17
0.0
 27
1.0
 37
0.0
 76
     0
330
1F
331
29
  0
MATERIAL
  5
45
102
{ACAD_REACTORS
330
43
102
}
330
43
100
AcDbMaterial
  1
ByBlock
 72
     1
 94
      127
  0
MATERIAL
  5
44
102
{ACAD_REACTORS
330
43
102
}
330
43
100
AcDbMaterial
  1
ByLayer
 72
     1
 94
      127
  0
MATERIAL
  5
46
102
{ACAD_REACTORS
330
43
102
}
330
43
100
AcDbMaterial
  1
Global
 72
     1
 94
      127
  0
MLEADERSTYLE
  5
6C
102
{ACAD_REACTORS
330
6B
102
}
330
6B
100
AcDbMLeaderStyle
179
     2
170
     2
171
     1
172
     0
 90
        2
 40
0.0
 41
0.0
173
     1
 91
-1056964608
340
14
 92
       -2
290
     1
 42
2.0
291
     1
 43
8.0
  3
Standard
341
0
 44
4.0
300

342
11
174
     1
178
     6
175
     1
176
     0
 93
-1056964608
 45
4.0
292
     0
297
     0
 46
4.0
343
0
 94
-1056964608
 47
1.0
 49
1.0
140
1.0
293
     1
141
0.0
294
     1
177
     0
142
1.0
295
     0
296
     0
143
3.75
271
     0
272
     9
273
     9
298
     0
  0
MLINESTYLE
  5
18
102
{ACAD_REACTORS
330
17
102
}
330
17
100
AcDbMlineStyle
  2
Standard
 70
     0
  3

 62
   256
 51
90.0
 52
90.0
 71
     2
 49
0.5
 62
   256
  6
BYLAYER
 49
-0.5
 62
   256
  6
BYLAYER
  0
ACDBPLACEHOLDER
  5
F
102
{ACAD_REACTORS
330
E
102
}
330
E
  0
SCALE
  5
48
102
{ACAD_REACTORS
330
47
102
}
330
47
100
AcDbScale
 70
     0
300
1:1
140
1.0
141
1.0
290
     1
  0
SCALE
  5
49
102
{ACAD_REACTORS
330
47
102
}
330
47
100
AcDbScale
 70
     0
300
1:2
140
1.0
141
2.0
290
     0
  0
SCALE
  5
4A
102
{ACAD_REACTORS
330
47
102
}
330
47
100
AcDbScale
 70
     0
300
1:4
140
1.0
141
4.0
290
     0
  0
SCALE
  5
4B
102
{ACAD_REACTORS
330
47
102
}
330
47
100
AcDbScale
 70
     0
300
1:5
140
1.0
141
5.0
290
     0
  0
SCALE
  5
4C
102
{ACAD_REACTORS
330
47
102
}
330
47
100
AcDbScale
 70
     0
300
1:8
140
1.0
141
8.0
290
     0
  0
SCALE
  5
4D
102
{ACAD_REACTORS
330
47
102
}
330
47
100
AcDbScale
 70
     0
300
1:10
140
1.0
141
10.0
290
     0
  0
SCALE
  5
4E
102
{ACAD_REACTORS
330
47
102
}
330
47
100
AcDbScale
 70
     0
300
1:16
140
1.0
141
16.0
290
     0
  0
SCALE
  5
4F
102
{ACAD_REACTORS
330
47
102
}
330
47
100
AcDbScale
 70
     0
300
1:20
140
1.0
141
20.0
290
     0
  0
SCALE
  5
50
102
{ACAD_REACTORS
330
47
102
}
330
47
100
AcDbScale
 70
     0
300
1:30
140
1.0
141
30.0
290
     0
  0
SCALE
  5
51
102
{ACAD_REACTORS
330
47
102
}
330
47
100
AcDbScale
 70
     0
300
1:40
140
1.0
141
40.0
290
     0
  0
SCALE
  5
52
102
{ACAD_REACTORS
330
47
102
}
330
47
100
AcDbScale
 70
     0
300
1:50
140
1.0
141
50.0
290
     0
  0
SCALE
  5
53
102
{ACAD_REACTORS
330
47
102
}
330
47
100
AcDbScale
 70
     0
300
1:100
140
1.0
141
100.0
290
     0
  0
SCALE
  5
54
102
{ACAD_REACTORS
330
47
102
}
330
47
100
AcDbScale
 70
     0
300
2:1
140
2.0
141
1.0
290
     0
  0
SCALE
  5
55
102
{ACAD_REACTORS
330
47
102
}
330
47
100
AcDbScale
 70
     0
300
4:1
140
4.0
141
1.0
290
     0
  0
SCALE
  5
56
102
{ACAD_REACTORS
330
47
102
}
330
47
100
AcDbScale
 70
     0
300
8:1
140
8.0
141
1.0
290
     0
  0
SCALE
  5
57
102
{ACAD_REACTORS
330
47
102
}
330
47
100
AcDbScale
 70
     0
300
10:1
140
10.0
141
1.0
290
     0
  0
SCALE
  5
58
102
{ACAD_REACTORS
330
47
102
}
330
47
100
AcDbScale
 70
     0
300
100:1
140
100.0
141
1.0
290
     0
  0
SCALE
  5
59
102
{ACAD_REACTORS
330
47
102
}
330
47
100
AcDbScale
 70
     0
300
1/128" = 1'-0"
140
0.0078125
141
12.0
290
     0
  0
SCALE
  5
5A
102
{ACAD_REACTORS
330
47
102
}
330
47
100
AcDbScale
 70
     0
300
1/64" = 1'-0"
140
0.015625
141
12.0
290
     0
  0
SCALE
  5
5B
102
{ACAD_REACTORS
330
47
102
}
330
47
100
AcDbScale
 70
     0
300
1/32" = 1'-0"
140
0.03125
141
12.0
290
     0
  0
SCALE
  5
5C
102
{ACAD_REACTORS
330
47
102
}
330
47
100
AcDbScale
 70
     0
300
1/16" = 1'-0"
140
0.0625
141
12.0
290
     0
  0
SCALE
  5
5D
102
{ACAD_REACTORS
330
47
102
}
330
47
100
AcDbScale
 70
     0
300
3/32" = 1'-0"
140
0.09375
141
12.0
290
     0
  0
SCALE
  5
5E
102
{ACAD_REACTORS
330
47
102
}
330
47
100
AcDbScale
 70
     0
300
1/8" = 1'-0"
140
0.125
141
12.0
290
     0
  0
SCALE
  5
5F
102
{ACAD_REACTORS
330
47
102
}
330
47
100
AcDbScale
 70
     0
300
3/16" = 1'-0"
140
0.1875
141
12.0
290
     0
  0
SCALE
  5
60
102
{ACAD_REACTORS
330
47
102
}
330
47
100
AcDbScale
 70
     0
300
1/4" = 1'-0"
140
0.25
141
12.0
290
     0
  0
SCALE
  5
61
102
{ACAD_REACTORS
330
47
102
}
330
47
100
AcDbScale
 70
     0
300
3/8" = 1'-0"
140
0.375
141
12.0
290
     0
  0
SCALE
  5
62
102
{ACAD_REACTORS
330
47
102
}
330
47
100
AcDbScale
 70
     0
300
1/2" = 1'-0"
140
0.5
141
12.0
290
     0
  0
SCALE
  5
63
102
{ACAD_REACTORS
330
47
102
}
330
47
100
AcDbScale
 70
     0
300
3/4" = 1'-0"
140
0.75
141
12.0
290
     0
  0
SCALE
  5
64
102
{ACAD_REACTORS
330
47
102
}
330
47
100
AcDbScale
 70
     0
300
1" = 1'-0"
140
1.0
141
12.0
290
     0
  0
SCALE
  5
65
102
{ACAD_REACTORS
330
47
102
}
330
47
100
AcDbScale
 70
     0
300
1-1/2" = 1'-0"
140
1.5
141
12.0
290
     0
  0
SCALE
  5
66
102
{ACAD_REACTORS
330
47
102
}
330
47
100
AcDbScale
 70
     0
300
3" = 1'-0"
140
3.0
141
12.0
290
     0
  0
SCALE
  5
67
102
{ACAD_REACTORS
330
47
102
}
330
47
100
AcDbScale
 70
     0
300
6" = 1'-0"
140
6.0
141
12.0
290
     0
  0
SCALE
  5
68
102
{ACAD_REACTORS
330
47
102
}
330
47
100
AcDbScale
 70
     0
300
1'-0" = 1'-0"
140
12.0
141
12.0
290
     0
  0
TABLESTYLE
  5
6A
102
{ACAD_REACTORS
330
69
102
}
102
{ACAD_XDICTIONARY
360
1FC
102
}
330
69
100
AcDbTableStyle
  3
Standard
 70
     0
 71
     0
 40
0.06
 41
0.06
280
     0
281
     0
  7
Standard
140
4.5
170
     2
 62
     0
 63
   257
283
     0
 90
        4
 91
        0
  1

274
    -2
284
     1
 64
     0
275
    -2
285
     1
 65
     0
276
    -2
286
     1
 66
     0
277
    -2
287
     1
 67
     0
278
    -2
288
     1
 68
     0
279
    -2
289
     1
 69
     0
  7
Standard
140
6.0
170
     5
 62
     0
 63
   257
283
     0
 90
        4
 91
        0
  1

274
    -2
284
     1
 64
     0
275
    -2
285
     1
 65
     0
276
    -2
286
     1
 66
     0
277
    -2
287
     1
 67
     0
278
    -2
288
     1
 68
     0
279
    -2
289
     1
 69
     0
  7
Standard
140
4.5
170
     5
 62
     0
 63
   257
283
     0
 90
        4
 91
        0
  1

274
    -2
284
     1
 64
     0
275
    -2
285
     1
 65
     0
276
    -2
286
     1
 66
     0
277
    -2
287
     1
 67
     0
278
    -2
288
     1
 68
     0
279
    -2
289
     1
 69
     0
  0
VISUALSTYLE
  5
2F
102
{ACAD_REACTORS
330
2A
102
}
330
2A
100
AcDbVisualStyle
  2
2dWireframe
 70
     4
177
     3
291
     0
 70
    58
 90
        0
176
     1
 90
        2
176
     1
 90
        0
176
     1
 90
        0
176
     1
 40
0.6
176
     1
 40
30.0
176
     1
 62
     7
420
 16777215
176
     1
 90
        1
176
     1
 90
        4
176
     1
 62
     7
176
     1
 62
   257
176
     1
 90
        1
176
     1
 90
        1
176
     1
 40
1.0
176
     1
 90
        0
176
     1
 62
   257
176
     1
 40
1.0
176
     1
 90
        1
176
     1
 90
        6
176
     1
 90
        2
176
     1
 62
     7
176
     1
 90
        5
176
     1
 90
        0
176
     1
 90
        0
176
     1
290
     0
176
     1
 90
        1
176
     1
 40
0.0
176
     1
 90
        0
176
     1
290
     1
176
     1
290
     1
176
     1
290
     0
176
     1
290
     0
176
     1
290
     0
176
     1
290
     0
176
     1
290
     0
176
     1
290
     0
176
     1
290
     0
176
     1
 90
       50
176
     1
 40
0.0
176
     1
 40
1.0
176
     1
 90
        0
176
     1
 62
    18
420
        0
176
     1
 90
       50
176
     1
 90
        3
176
     1
 62
     5
420
      255
176
     1
290
     0
176
     1
 90
       50
176
     1
 90
       50
176
     1
 90
       50
176
     1
290
     0
176
     1
 90
       50
176
     1
 62
   256
176
     0
 40
1.0
176
     0
 90
        2
176
     1
  1
strokes_ogs.tif
176
     1
290
     0
176
     1
 40
1.0
176
     1
 40
1.0
176
     1
  0
VISUALSTYLE
  5
32
102
{ACAD_REACTORS
330
2A
102
}
330
2A
100
AcDbVisualStyle
  2
Basic
 70
     7
177
     3
291
     1
 70
    58
 90
        1
176
     1
 90
        0
176
     1
 90
        1
176
     1
 90
        0
176
     1
 40
0.6
176
     1
 40
30.0
176
     1
 62
     7
420
 16777215
176
     1
 90
        0
176
     1
 90
        4
176
     1
 62
     7
176
     1
 62
   257
176
     1
 90
        1
176
     1
 90
        1
176
     1
 40
1.0
176
     1
 90
        8
176
     1
 62
     7
176
     1
 40
1.0
176
     1
 90
        1
176
     1
 90
        6
176
     1
 90
        2
176
     1
 62
     7
176
     1
 90
        5
176
     1
 90
        0
176
     1
 90
        0
176
     1
290
     0
176
     1
 90
        1
176
     1
 40
0.0
176
     1
 90
        0
176
     1
290
     0
176
     1
290
     1
176
     1
290
     1
176
     1
290
     0
176
     1
290
     0
176
     1
290
     0
176
     1
290
     0
176
     1
290
     0
176
     1
290
     0
176
     1
 90
       50
176
     1
 40
0.0
176
     1
 40
1.0
176
     1
 90
        0
176
     1
 62
    18
420
        0
176
     1
 90
       50
176
     1
 90
        3
176
     1
 62
     5
420
      255
176
     1
290
     0
176
     1
 90
       50
176
     1
 90
       50
176
     1
 90
       50
176
     1
290
     0
176
     1
 90
       50
176
     1
 62
   256
176
     0
 40
1.0
176
     0
 90
        2
176
     1
  1
strokes_ogs.tif
176
     1
290
     0
176
     1
 40
1.0
176
     1
 40
1.0
176
     1
  0
VISUALSTYLE
  5
36
102
{ACAD_REACTORS
330
2A
102
}
330
2A
100
AcDbVisualStyle
  2
Brighten
 70
    12
177
     3
291
     1
 70
    58
 90
        2
176
     1
 90
        2
176
     1
 90
        0
176
     1
 90
        0
176
     1
 40
0.6
176
     1
 40
30.0
176
     1
 62
     7
420
 16777215
176
     1
 90
        1
176
     1
 90
        4
176
     1
 62
     7
176
     1
 62
   257
176
     1
 90
        1
176
     1
 90
        1
176
     1
 40
1.0
176
     1
 90
        8
176
     1
 62
     7
176
     1
 40
1.0
176
     1
 90
        1
176
     1
 90
        6
176
     1
 90
        2
176
     1
 62
     7
176
     1
 90
        5
176
     1
 90
        0
176
     1
 90
        0
176
     1
290
     0
176
     1
 90
        1
176
     1
 40
50.0
176
     1
 90
        0
176
     1
290
     0
176
     1
290
     1
176
     1
290
     1
176
     1
290
     0
176
     1
290
     0
176
     1
290
     0
176
     1
290
     0
176
     1
290
     0
176
     1
290
     0
176
     1
 90
       50
176
     1
 40
0.0
176
     1
 40
1.0
176
     1
 90
        0
176
     1
 62
    18
420
        0
176
     1
 90
       50
176
     1
 90
        3
176
     1
 62
     5
420
      255
176
     1
290
     0
176
     1
 90
       50
176
     1
 90
       50
176
     1
 90
       50
176
     1
290
     0
176
     1
 90
       50
176
     1
 62
   256
176
     0
 40
1.0
176
     0
 90
        2
176
     1
  1
strokes_ogs.tif
176
     1
290
     0
176
     1
 40
1.0
176
     1
 40
1.0
176
     1
  0
VISUALSTYLE
  5
3A
102
{ACAD_REACTORS
330
2A
102
}
330
2A
100
AcDbVisualStyle
  2
ColorChange
 70
    16
177
     3
291
     1
 70
    58
 90
        2
176
     1
 90
        2
176
     1
 90
        3
176
     1
 90
        0
176
     1
 40
0.6
176
     1
 40
30.0
176
     1
 62
     8
420
  8421504
176
     1
 90
        1
176
     1
 90
        4
176
     1
 62
     7
176
     1
 62
   257
176
     1
 90
        1
176
     1
 90
        1
176
     1
 40
1.0
176
     1
 90
        8
176
     1
 62
     8
420
  8421504
176
     1
 40
1.0
176
     1
 90
        1
176
     1
 90
        6
176
     1
 90
        2
176
     1
 62
     7
176
     1
 90
        5
176
     1
 90
        0
176
     1
 90
        0
176
     1
290
     0
176
     1
 90
        1
176
     1
 40
0.0
176
     1
 90
        0
176
     1
290
     0
176
     1
290
     1
176
     1
290
     1
176
     1
290
     0
176
     1
290
     0
176
     1
290
     0
176
     1
290
     0
176
     1
290
     0
176
     1
290
     0
176
     1
 90
       50
176
     1
 40
0.0
176
     1
 40
1.0
176
     1
 90
        0
176
     1
 62
    18
420
        0
176
     1
 90
       50
176
     1
 90
        3
176
     1
 62
     5
420
      255
176
     1
290
     0
176
     1
 90
       50
176
     1
 90
       50
176
     1
 90
       50
176
     1
290
     0
176
     1
 90
       50
176
     1
 62
   256
176
     0
 40
1.0
176
     0
 90
        2
176
     1
  1
strokes_ogs.tif
176
     1
290
     0
176
     1
 40
1.0
176
     1
 40
1.0
176
     1
  0
VISUALSTYLE
  5
34
102
{ACAD_REACTORS
330
2A
102
}
330
2A
100
AcDbVisualStyle
  2
Conceptual
 70
     9
177
     3
291
     0
 70
    58
 90
        3
176
     1
 90
        2
176
     1
 90
        0
176
     1
 90
        0
176
     1
 40
0.6
176
     1
 40
30.0
176
     1
 62
     7
420
 16777215
176
     1
 90
        2
176
     1
 90
        2
176
     1
 62
     7
176
     1
 62
   257
176
     1
 90
        1
176
     1
 90
        1
176
     1
 40
179.0
176
     1
 90
        8
176
     1
 62
     7
176
     1
 40
1.0
176
     1
 90
        1
176
     1
 90
        6
176
     1
 90
        2
176
     1
 62
     7
176
     1
 90
        3
176
     1
 90
        0
176
     1
 90
        0
176
     1
290
     0
176
     1
 90
        1
176
     1
 40
0.0
176
     1
 90
        0
176
     1
290
     0
176
     1
290
     1
176
     1
290
     1
176
     1
290
     0
176
     1
290
     0
176
     1
290
     0
176
     1
290
     0
176
     1
290
     0
176
     1
290
     0
176
     1
 90
       50
176
     1
 40
0.0
176
     1
 40
1.0
176
     1
 90
        0
176
     1
 62
    18
420
        0
176
     1
 90
       50
176
     1
 90
        3
176
     1
 62
     5
420
      255
176
     1
290
     0
176
     1
 90
       50
176
     1
 90
       50
176
     1
 90
       50
176
     1
290
     0
176
     1
 90
       50
176
     1
 62
   256
176
     0
 40
1.0
176
     0
 90
        2
176
     1
  1
strokes_ogs.tif
176
     1
290
     0
176
     1
 40
1.0
176
     1
 40
1.0
176
     1
  0
VISUALSTYLE
  5
35
102
{ACAD_REACTORS
330
2A
102
}
330
2A
100
AcDbVisualStyle
  2
Dim
 70
    11
177
     3
291
     1
 70
    58
 90
        2
176
     1
 90
        2
176
     1
 90
        0
176
     1
 90
        0
176
     1
 40
0.6
176
     1
 40
30.0
176
     1
 62
     7
420
 16777215
176
     1
 90
        1
176
     1
 90
        4
176
     1
 62
     7
176
     1
 62
   257
176
     1
 90
        1
176
     1
 90
        1
176
     1
 40
1.0
176
     1
 90
        8
176
     1
 62
     7
176
     1
 40
1.0
176
     1
 90
        1
176
     1
 90
        6
176
     1
 90
        2
176
     1
 62
     7
176
     1
 90
        5
176
     1
 90
        0
176
     1
 90
        0
176
     1
290
     0
176
     1
 90
        1
176
     1
 40
-50.0
176
     1
 90
        0
176
     1
290
     0
176
     1
290
     1
176
     1
290
     1
176
     1
290
     0
176
     1
290
     0
176
     1
290
     0
176
     1
290
     0
176
     1
290
     0
176
     1
290
     0
176
     1
 90
       50
176
     1
 40
0.0
176
     1
 40
1.0
176
     1
 90
        0
176
     1
 62
    18
420
        0
176
     1
 90
       50
176
     1
 90
        3
176
     1
 62
     5
420
      255
176
     1
290
     0
176
     1
 90
       50
176
     1
 90
       50
176
     1
 90
       50
176
     1
290
     0
176
     1
 90
       50
176
     1
 62
   256
176
     0
 40
1.0
176
     0
 90
        2
176
     1
  1
strokes_ogs.tif
176
     1
290
     0
176
     1
 40
1.0
176
     1
 40
1.0
176
     1
  0
VISUALSTYLE
  5
3D
102
{ACAD_REACTORS
330
2A
102
}
330
2A
100
AcDbVisualStyle
  2
EdgeColorOff
 70
    22
177
     3
291
     1
 70
    58
 90
        2
176
     0
 90
        2
176
     0
 90
        0
176
     0
 90
        0
176
     0
 40
0.6
176
     0
 40
30.0
176
     0
 62
     7
420
 16777215
176
     0
 90
        1
176
     0
 90
        4
176
     0
 62
     7
176
     0
 62
   257
176
     0
 90
        1
176
     0
 90
        1
176
     0
 40
1.0
176
     0
 90
        8
176
     2
 62
     7
176
     0
 40
1.0
176
     0
 90
        1
176
     0
 90
        6
176
     0
 90
        2
176
     0
 62
     7
176
     0
 90
        5
176
     0
 90
        0
176
     0
 90
        0
176
     0
290
     0
176
     0
 90
        1
176
     0
 40
0.0
176
     0
 90
        0
176
     0
290
     0
176
     0
290
     1
176
     0
290
     1
176
     0
290
     0
176
     0
290
     0
176
     0
290
     0
176
     0
290
     0
176
     0
290
     0
176
     0
290
     0
176
     0
 90
       50
176
     0
 40
0.0
176
     0
 40
1.0
176
     0
 90
        0
176
     0
 62
    18
420
        0
176
     0
 90
       50
176
     0
 90
        3
176
     0
 62
     5
420
      255
176
     0
290
     0
176
     0
 90
       50
176
     0
 90
       50
176
     0
 90
       50
176
     0
290
     0
176
     0
 90
       50
176
     0
 62
   256
176
     0
 40
1.0
176
     0
 90
        2
176
     0
  1
strokes_ogs.tif
176
     0
290
     0
176
     0
 40
1.0
176
     0
 40
1.0
176
     0
  0
VISUALSTYLE
  5
39
102
{ACAD_REACTORS
330
2A
102
}
330
2A
100
AcDbVisualStyle
  2
Facepattern
 70
    15
177
     3
291
     1
 70
    58
 90
        2
176
     1
 90
        2
176
     1
 90
        0
176
     1
 90
        0
176
     1
 40
0.6
176
     1
 40
30.0
176
     1
 62
     7
420
 16777215
176
     1
 90
        1
176
     1
 90
        4
176
     1
 62
     7
176
     1
 62
   257
176
     1
 90
        1
176
     1
 90
        1
176
     1
 40
1.0
176
     1
 90
        8
176
     1
 62
     7
176
     1
 40
1.0
176
     1
 90
        1
176
     1
 90
        6
176
     1
 90
        2
176
     1
 62
     7
176
     1
 90
        5
176
     1
 90
        0
176
     1
 90
        0
176
     1
290
     0
176
     1
 90
        1
176
     1
 40
0.0
176
     1
 90
        0
176
     1
290
     0
176
     1
290
     1
176
     1
290
     1
176
     1
290
     0
176
     1
290
     0
176
     1
290
     0
176
     1
290
     0
176
     1
290
     0
176
     1
290
     0
176
     1
 90
       50
176
     1
 40
0.0
176
     1
 40
1.0
176
     1
 90
        0
176
     1
 62
    18
420
        0
176
     1
 90
       50
176
     1
 90
        3
176
     1
 62
     5
420
      255
176
     1
290
     0
176
     1
 90
       50
176
     1
 90
       50
176
     1
 90
       50
176
     1
290
     0
176
     1
 90
       50
176
     1
 62
   256
176
     0
 40
1.0
176
     0
 90
        2
176
     1
  1
strokes_ogs.tif
176
     1
290
     0
176
     1
 40
1.0
176
     1
 40
1.0
176
     1
  0
VISUALSTYLE
  5
2B
102
{ACAD_REACTORS
330
2A
102
}
330
2A
100
AcDbVisualStyle
  2
Flat
 70
     0
177
     3
291
     1
 70
    58
 90
        2
176
     1
 90
        1
176
     1
 90
        1
176
     1
 90
        2
176
     1
 40
0.6
176
     1
 40
30.0
176
     1
 62
     7
420
 16777215
176
     1
 90
        0
176
     1
 90
        0
176
     1
 62
     7
176
     1
 62
   257
176
     1
 90
        1
176
     1
 90
        1
176
     1
 40
1.0
176
     1
 90
        8
176
     1
 62
     7
176
     1
 40
1.0
176
     1
 90
        1
176
     1
 90
        6
176
     1
 90
        2
176
     1
 62
     7
176
     1
 90
        5
176
     1
 90
        0
176
     1
 90
        0
176
     1
290
     0
176
     1
 90
       13
176
     1
 40
0.0
176
     1
 90
        0
176
     1
290
     0
176
     1
290
     1
176
     1
290
     1
176
     1
290
     0
176
     1
290
     0
176
     1
290
     0
176
     1
290
     0
176
     1
290
     0
176
     1
290
     0
176
     1
 90
       50
176
     1
 40
0.0
176
     1
 40
1.0
176
     1
 90
        0
176
     1
 62
    18
420
        0
176
     1
 90
       50
176
     1
 90
        3
176
     1
 62
     5
420
      255
176
     1
290
     0
176
     1
 90
       50
176
     1
 90
       50
176
     1
 90
       50
176
     1
290
     0
176
     1
 90
       50
176
     1
 62
   256
176
     0
 40
1.0
176
     0
 90
        2
176
     1
  1
strokes_ogs.tif
176
     1
290
     0
176
     1
 40
1.0
176
     1
 40
1.0
176
     1
  0
VISUALSTYLE
  5
2C
102
{ACAD_REACTORS
330
2A
102
}
330
2A
100
AcDbVisualStyle
  2
FlatWithEdges
 70
     1
177
     3
291
     1
 70
    58
 90
        2
176
     1
 90
        1
176
     1
 90
        1
176
     1
 90
        2
176
     1
 40
0.6
176
     1
 40
30.0
176
     1
 62
     7
420
 16777215
176
     1
 90
        1
176
     1
 90
        0
176
     1
 62
     7
176
     1
 62
   257
176
     1
 90
        1
176
     1
 90
        1
176
     1
 40
1.0
176
     1
 90
        0
176
     1
 62
   257
176
     1
 40
1.0
176
     1
 90
        1
176
     1
 90
        6
176
     1
 90
        2
176
     1
 62
     7
176
     1
 90
        5
176
     1
 90
        0
176
     1
 90
        0
176
     1
290
     0
176
     1
 90
       13
176
     1
 40
0.0
176
     1
 90
        0
176
     1
290
     0
176
     1
290
     1
176
     1
290
     1
176
     1
290
     0
176
     1
290
     0
176
     1
290
     0
176
     1
290
     0
176
     1
290
     0
176
     1
290
     0
176
     1
 90
       50
176
     1
 40
0.0
176
     1
 40
1.0
176
     1
 90
        0
176
     1
 62
    18
420
        0
176
     1
 90
       50
176
     1
 90
        3
176
     1
 62
     5
420
      255
176
     1
290
     0
176
     1
 90
       50
176
     1
 90
       50
176
     1
 90
       50
176
     1
290
     0
176
     1
 90
       50
176
     1
 62
   256
176
     0
 40
1.0
176
     0
 90
        2
176
     1
  1
strokes_ogs.tif
176
     1
290
     0
176
     1
 40
1.0
176
     1
 40
1.0
176
     1
  0
VISUALSTYLE
  5
2D
102
{ACAD_REACTORS
330
2A
102
}
330
2A
100
AcDbVisualStyle
  2
Gouraud
 70
     2
177
     3
291
     1
 70
    58
 90
        2
176
     1
 90
        2
176
     1
 90
        1
176
     1
 90
        2
176
     1
 40
0.6
176
     1
 40
30.0
176
     1
 62
     7
420
 16777215
176
     1
 90
        0
176
     1
 90
        0
176
     1
 62
     7
176
     1
 62
   257
176
     1
 90
        1
176
     1
 90
        1
176
     1
 40
1.0
176
     1
 90
        0
176
     1
 62
     7
176
     1
 40
1.0
176
     1
 90
        1
176
     1
 90
        6
176
     1
 90
        2
176
     1
 62
     7
176
     1
 90
        5
176
     1
 90
        0
176
     1
 90
        0
176
     1
290
     0
176
     1
 90
       13
176
     1
 40
0.0
176
     1
 90
        0
176
     1
290
     0
176
     1
290
     1
176
     1
290
     1
176
     1
290
     0
176
     1
290
     0
176
     1
290
     0
176
     1
290
     0
176
     1
290
     0
176
     1
290
     0
176
     1
 90
       50
176
     1
 40
0.0
176
     1
 40
1.0
176
     1
 90
        0
176
     1
 62
    18
420
        0
176
     1
 90
       50
176
     1
 90
        3
176
     1
 62
     5
420
      255
176
     1
290
     0
176
     1
 90
       50
176
     1
 90
       50
176
     1
 90
       50
176
     1
290
     0
176
     1
 90
       50
176
     1
 62
   256
176
     0
 40
1.0
176
     0
 90
        2
176
     1
  1
strokes_ogs.tif
176
     1
290
     0
176
     1
 40
1.0
176
     1
 40
1.0
176
     1
  0
VISUALSTYLE
  5
2E
102
{ACAD_REACTORS
330
2A
102
}
330
2A
100
AcDbVisualStyle
  2
GouraudWithEdges
 70
     3
177
     3
291
     1
 70
    58
 90
        2
176
     1
 90
        2
176
     1
 90
        1
176
     1
 90
        2
176
     1
 40
0.6
176
     1
 40
30.0
176
     1
 62
     7
420
 16777215
176
     1
 90
        1
176
     1
 90
        0
176
     1
 62
     7
176
     1
 62
   257
176
     1
 90
        1
176
     1
 90
        1
176
     1
 40
1.0
176
     1
 90
        0
176
     1
 62
   257
176
     1
 40
1.0
176
     1
 90
        1
176
     1
 90
        6
176
     1
 90
        2
176
     1
 62
     7
176
     1
 90
        5
176
     1
 90
        0
176
     1
 90
        0
176
     1
290
     0
176
     1
 90
       13
176
     1
 40
0.0
176
     1
 90
        0
176
     1
290
     0
176
     1
290
     1
176
     1
290
     1
176
     1
290
     0
176
     1
290
     0
176
     1
290
     0
176
     1
290
     0
176
     1
290
     0
176
     1
290
     0
176
     1
 90
       50
176
     1
 40
0.0
176
     1
 40
1.0
176
     1
 90
        0
176
     1
 62
    18
420
        0
176
     1
 90
       50
176
     1
 90
        3
176
     1
 62
     5
420
      255
176
     1
290
     0
176
     1
 90
       50
176
     1
 90
       50
176
     1
 90
       50
176
     1
290
     0
176
     1
 90
       50
176
     1
 62
   256
176
     0
 40
1.0
176
     0
 90
        2
176
     1
  1
strokes_ogs.tif
176
     1
290
     0
176
     1
 40
1.0
176
     1
 40
1.0
176
     1
  0
VISUALSTYLE
  5
31
102
{ACAD_REACTORS
330
2A
102
}
330
2A
100
AcDbVisualStyle
  2
Hidden
 70
     6
177
     3
291
     0
 70
    58
 90
        1
176
     1
 90
        2
176
     1
 90
        2
176
     1
 90
        0
176
     1
 40
0.6
176
     1
 40
30.0
176
     1
 62
     7
420
 16777215
176
     1
 90
        2
176
     1
 90
        2
176
     1
 62
     7
176
     1
 62
   257
176
     1
 90
        2
176
     1
 90
        1
176
     1
 40
40.0
176
     1
 90
        0
176
     1
 62
   257
176
     1
 40
1.0
176
     1
 90
        1
176
     1
 90
        6
176
     1
 90
        2
176
     1
 62
     7
176
     1
 90
        3
176
     1
 90
        0
176
     1
 90
        0
176
     1
290
     0
176
     1
 90
        1
176
     1
 40
0.0
176
     1
 90
        0
176
     1
290
     0
176
     1
290
     1
176
     1
290
     1
176
     1
290
     0
176
     1
290
     0
176
     1
290
     0
176
     1
290
     0
176
     1
290
     0
176
     1
290
     0
176
     1
 90
       50
176
     1
 40
0.0
176
     1
 40
1.0
176
     1
 90
        0
176
     1
 62
    18
420
        0
176
     1
 90
       50
176
     1
 90
        3
176
     1
 62
     5
420
      255
176
     1
290
     0
176
     1
 90
       50
176
     1
 90
       50
176
     1
 90
       50
176
     1
290
     0
176
     1
 90
       50
176
     1
 62
   256
176
     0
 40
1.0
176
     0
 90
        2
176
     1
  1
strokes_ogs.tif
176
     1
290
     0
176
     1
 40
1.0
176
     1
 40
1.0
176
     1
  0
VISUALSTYLE
  5
3B
102
{ACAD_REACTORS
330
2A
102
}
330
2A
100
AcDbVisualStyle
  2
JitterOff
 70
    20
177
     3
291
     1
 70
    58
 90
        2
176
     0
 90
        2
176
     0
 90
        0
176
     0
 90
        0
176
     0
 40
0.6
176
     0
 40
30.0
176
     0
 62
     7
420
 16777215
176
     0
 90
        1
176
     0
 90
        4
176
     0
 62
     7
176
     0
 62
   257
176
     0
 90
        1
176
     0
 90
        1
176
     0
 40
1.0
176
     0
 90
       10
176
     2
 62
     7
176
     0
 40
1.0
176
     0
 90
        1
176
     0
 90
        6
176
     0
 90
        2
176
     0
 62
     7
176
     0
 90
        5
176
     0
 90
        0
176
     0
 90
        0
176
     0
290
     0
176
     0
 90
        1
176
     0
 40
0.0
176
     0
 90
        0
176
     0
290
     0
176
     0
290
     1
176
     0
290
     1
176
     0
290
     0
176
     0
290
     0
176
     0
290
     0
176
     0
290
     0
176
     0
290
     0
176
     0
290
     0
176
     0
 90
       50
176
     0
 40
0.0
176
     0
 40
1.0
176
     0
 90
        0
176
     0
 62
    18
420
        0
176
     0
 90
       50
176
     0
 90
        3
176
     0
 62
     5
420
      255
176
     0
290
     0
176
     0
 90
       50
176
     0
 90
       50
176
     0
 90
       50
176
     0
290
     0
176
     0
 90
       50
176
     0
 62
   256
176
     0
 40
1.0
176
     0
 90
        2
176
     0
  1
strokes_ogs.tif
176
     0
290
     0
176
     0
 40
1.0
176
     0
 40
1.0
176
     0
  0
VISUALSTYLE
  5
38
102
{ACAD_REACTORS
330
2A
102
}
330
2A
100
AcDbVisualStyle
  2
Linepattern
 70
    14
177
     3
291
     1
 70
    58
 90
        2
176
     1
 90
        2
176
     1
 90
        0
176
     1
 90
        0
176
     1
 40
0.6
176
     1
 40
30.0
176
     1
 62
     7
420
 16777215
176
     1
 90
        1
176
     1
 90
        4
176
     1
 62
     7
176
     1
 62
   257
176
     1
 90
        7
176
     1
 90
        7
176
     1
 40
1.0
176
     1
 90
        8
176
     1
 62
     7
176
     1
 40
1.0
176
     1
 90
        1
176
     1
 90
        6
176
     1
 90
        2
176
     1
 62
     7
176
     1
 90
        5
176
     1
 90
        0
176
     1
 90
        0
176
     1
290
     0
176
     1
 90
        1
176
     1
 40
0.0
176
     1
 90
        0
176
     1
290
     0
176
     1
290
     1
176
     1
290
     1
176
     1
290
     0
176
     1
290
     0
176
     1
290
     0
176
     1
290
     0
176
     1
290
     0
176
     1
290
     0
176
     1
 90
       50
176
     1
 40
0.0
176
     1
 40
1.0
176
     1
 90
        0
176
     1
 62
    18
420
        0
176
     1
 90
       50
176
     1
 90
        3
176
     1
 62
     5
420
      255
176
     1
290
     0
176
     1
 90
       50
176
     1
 90
       50
176
     1
 90
       50
176
     1
290
     0
176
     1
 90
       50
176
     1
 62
   256
176
     0
 40
1.0
176
     0
 90
        2
176
     1
  1
strokes_ogs.tif
176
     1
290
     0
176
     1
 40
1.0
176
     1
 40
1.0
176
     1
  0
VISUALSTYLE
  5
3C
102
{ACAD_REACTORS
330
2A
102
}
330
2A
100
AcDbVisualStyle
  2
OverhangOff
 70
    21
177
     3
291
     1
 70
    58
 90
        2
176
     0
 90
        2
176
     0
 90
        0
176
     0
 90
        0
176
     0
 40
0.6
176
     0
 40
30.0
176
     0
 62
     7
420
 16777215
176
     0
 90
        1
176
     0
 90
        4
176
     0
 62
     7
176
     0
 62
   257
176
     0
 90
        1
176
     0
 90
        1
176
     0
 40
1.0
176
     0
 90
        9
176
     2
 62
     7
176
     0
 40
1.0
176
     0
 90
        1
176
     0
 90
        6
176
     0
 90
        2
176
     0
 62
     7
176
     0
 90
        5
176
     0
 90
        0
176
     0
 90
        0
176
     0
290
     0
176
     0
 90
        1
176
     0
 40
0.0
176
     0
 90
        0
176
     0
290
     0
176
     0
290
     1
176
     0
290
     1
176
     0
290
     0
176
     0
290
     0
176
     0
290
     0
176
     0
290
     0
176
     0
290
     0
176
     0
290
     0
176
     0
 90
       50
176
     0
 40
0.0
176
     0
 40
1.0
176
     0
 90
        0
176
     0
 62
    18
420
        0
176
     0
 90
       50
176
     0
 90
        3
176
     0
 62
     5
420
      255
176
     0
290
     0
176
     0
 90
       50
176
     0
 90
       50
176
     0
 90
       50
176
     0
290
     0
176
     0
 90
       50
176
     0
 62
   256
176
     0
 40
1.0
176
     0
 90
        2
176
     0
  1
strokes_ogs.tif
176
     0
290
     0
176
     0
 40
1.0
176
     0
 40
1.0
176
     0
  0
VISUALSTYLE
  5
33
102
{ACAD_REACTORS
330
2A
102
}
330
2A
100
AcDbVisualStyle
  2
Realistic
 70
     8
177
     3
291
     0
 70
    58
 90
        2
176
     1
 90
        3
176
     1
 90
        0
176
     1
 90
        2
176
     1
 40
0.6
176
     1
 40
30.0
176
     1
 62
     7
420
 16777215
176
     1
 90
        0
176
     1
 90
        0
176
     1
 62
     7
176
     1
 62
   257
176
     1
 90
        1
176
     1
 90
        1
176
     1
 40
1.0
176
     1
 90
        8
176
     1
 62
   257
176
     1
 40
1.0
176
     1
 90
        1
176
     1
 90
        6
176
     1
 90
        2
176
     1
 62
     7
176
     1
 90
        3
176
     1
 90
        0
176
     1
 90
        0
176
     1
290
     0
176
     1
 90
       13
176
     1
 40
0.0
176
     1
 90
        0
176
     1
290
     0
176
     1
290
     1
176
     1
290
     1
176
     1
290
     0
176
     1
290
     0
176
     1
290
     0
176
     1
290
     0
176
     1
290
     0
176
     1
290
     0
176
     1
 90
       50
176
     1
 40
0.0
176
     1
 40
1.0
176
     1
 90
        0
176
     1
 62
    18
420
        0
176
     1
 90
       50
176
     1
 90
        3
176
     1
 62
     5
420
      255
176
     1
290
     0
176
     1
 90
       50
176
     1
 90
       50
176
     1
 90
       50
176
     1
290
     0
176
     1
 90
       50
176
     1
 62
   256
176
     0
 40
1.0
176
     0
 90
        2
176
     1
  1
strokes_ogs.tif
176
     1
290
     0
176
     1
 40
1.0
176
     1
 40
1.0
176
     1
  0
VISUALSTYLE
  5
42
102
{ACAD_REACTORS
330
2A
102
}
330
2A
100
AcDbVisualStyle
  2
Shaded
 70
    27
177
     3
291
     0
 70
    58
 90
        2
176
     1
 90
        2
176
     1
 90
        1
176
     1
 90
        2
176
     1
 40
0.6
176
     1
 40
30.0
176
     1
 62
     7
420
 16777215
176
     1
 90
        0
176
     1
 90
        4
176
     1
 62
     7
176
     1
 62
   257
176
     1
 90
        1
176
     1
 90
        1
176
     1
 40
1.0
176
     1
 90
        8
176
     1
 62
   257
176
     1
 40
1.0
176
     1
 90
        1
176
     1
 90
        6
176
     1
 90
        2
176
     1
 62
     8
420
  7895160
176
     1
 90
        3
176
     1
 90
        0
176
     1
 90
        0
176
     1
290
     0
176
     1
 90
        5
176
     1
 40
0.0
176
     1
 90
        0
176
     1
290
     0
176
     1
290
     1
176
     1
290
     1
176
     1
290
     0
176
     1
290
     0
176
     1
290
     0
176
     1
290
     0
176
     1
290
     0
176
     1
290
     0
176
     1
 90
       50
176
     1
 40
0.0
176
     1
 40
1.0
176
     1
 90
        0
176
     1
 62
    18
420
        0
176
     1
 90
       50
176
     1
 90
        3
176
     1
 62
     5
420
      255
176
     1
290
     0
176
     1
 90
       50
176
     1
 90
       50
176
     1
 90
       50
176
     1
290
     0
176
     1
 90
       50
176
     1
 62
   256
176
     0
 40
1.0
176
     0
 90
        2
176
     1
  1
strokes_ogs.tif
176
     1
290
     0
176
     1
 40
1.0
176
     1
 40
1.0
176
     1
  0
VISUALSTYLE
  5
41
102
{ACAD_REACTORS
330
2A
102
}
330
2A
100
AcDbVisualStyle
  2
Shaded with edges
 70
    26
177
     3
291
     0
 70
    58
 90
        2
176
     1
 90
        2
176
     1
 90
        1
176
     1
 90
        2
176
     1
 40
0.6
176
     1
 40
30.0
176
     1
 62
     7
420
 16777215
176
     1
 90
        1
176
     1
 90
       10
176
     1
 62
     7
176
     1
 62
   257
176
     1
 90
        2
176
     1
 90
        1
176
     1
 40
1.0
176
     1
 90
        8
176
     1
 62
   257
176
     1
 40
1.0
176
     1
 90
        1
176
     1
 90
        6
176
     1
 90
        2
176
     1
 62
     7
176
     1
 90
        3
176
     1
 90
        0
176
     1
 90
        0
176
     1
290
     0
176
     1
 90
        5
176
     1
 40
0.0
176
     1
 90
        0
176
     1
290
     0
176
     1
290
     1
176
     1
290
     1
176
     1
290
     0
176
     1
290
     0
176
     1
290
     0
176
     1
290
     0
176
     1
290
     0
176
     1
290
     0
176
     1
 90
       50
176
     1
 40
0.0
176
     1
 40
1.0
176
     1
 90
        0
176
     1
 62
    18
420
        0
176
     1
 90
       50
176
     1
 90
        3
176
     1
 62
     5
420
      255
176
     1
290
     0
176
     1
 90
       50
176
     1
 90
       50
176
     1
 90
       50
176
     1
290
     0
176
     1
 90
       50
176
     1
 62
   256
176
     0
 40
1.0
176
     0
 90
        2
176
     1
  1
strokes_ogs.tif
176
     1
290
     0
176
     1
 40
1.0
176
     1
 40
1.0
176
     1
  0
VISUALSTYLE
  5
3E
102
{ACAD_REACTORS
330
2A
102
}
330
2A
100
AcDbVisualStyle
  2
Shades of Gray
 70
    23
177
     3
291
     0
 70
    58
 90
        2
176
     1
 90
        2
176
     1
 90
        3
176
     1
 90
        0
176
     1
 40
0.6
176
     1
 40
30.0
176
     1
 62
     7
420
 16777215
176
     1
 90
        2
176
     1
 90
        2
176
     1
 62
     7
176
     1
 62
     7
176
     1
 90
        1
176
     1
 90
        1
176
     1
 40
40.0
176
     1
 90
        8
176
     1
 62
     7
176
     1
 40
1.0
176
     1
 90
        1
176
     1
 90
        6
176
     1
 90
        2
176
     1
 62
     7
176
     1
 90
        3
176
     1
 90
        0
176
     1
 90
        0
176
     1
290
     0
176
     1
 90
        1
176
     1
 40
0.0
176
     1
 90
        0
176
     1
290
     0
176
     1
290
     1
176
     1
290
     1
176
     1
290
     0
176
     1
290
     0
176
     1
290
     0
176
     1
290
     0
176
     1
290
     0
176
     1
290
     0
176
     1
 90
       50
176
     1
 40
0.0
176
     1
 40
1.0
176
     1
 90
        0
176
     1
 62
    18
420
        0
176
     1
 90
       50
176
     1
 90
        3
176
     1
 62
     5
420
      255
176
     1
290
     0
176
     1
 90
       50
176
     1
 90
       50
176
     1
 90
       50
176
     1
290
     0
176
     1
 90
       50
176
     1
 62
   256
176
     0
 40
1.0
176
     0
 90
        2
176
     1
  1
strokes_ogs.tif
176
     1
290
     0
176
     1
 40
1.0
176
     1
 40
1.0
176
     1
  0
VISUALSTYLE
  5
3F
102
{ACAD_REACTORS
330
2A
102
}
330
2A
100
AcDbVisualStyle
  2
Sketchy
 70
    24
177
     3
291
     0
 70
    58
 90
        1
176
     1
 90
        2
176
     1
 90
        2
176
     1
 90
        0
176
     1
 40
0.6
176
     1
 40
30.0
176
     1
 62
     7
420
 16777215
176
     1
 90
        2
176
     1
 90
        2
176
     1
 62
     7
176
     1
 62
     7
176
     1
 90
        1
176
     1
 90
        1
176
     1
 40
40.0
176
     1
 90
       11
176
     1
 62
     7
176
     1
 40
1.0
176
     1
 90
        1
176
     1
 90
        6
176
     1
 90
        2
176
     1
 62
     7
176
     1
 90
        6
176
     1
 90
        0
176
     1
 90
        0
176
     1
290
     0
176
     1
 90
        1
176
     1
 40
0.0
176
     1
 90
        0
176
     1
290
     0
176
     1
290
     1
176
     1
290
     1
176
     1
290
     0
176
     1
290
     0
176
     1
290
     0
176
     1
290
     0
176
     1
290
     0
176
     1
290
     0
176
     1
 90
       50
176
     1
 40
0.0
176
     1
 40
1.0
176
     1
 90
        0
176
     1
 62
    18
420
        0
176
     1
 90
       50
176
     1
 90
        3
176
     1
 62
     5
420
      255
176
     1
290
     0
176
     1
 90
       50
176
     1
 90
       50
176
     1
 90
       50
176
     1
290
     0
176
     1
 90
       50
176
     1
 62
   256
176
     0
 40
1.0
176
     0
 90
        2
176
     1
  1
strokes_ogs.tif
176
     1
290
     0
176
     1
 40
1.0
176
     1
 40
1.0
176
     1
  0
VISUALSTYLE
  5
37
102
{ACAD_REACTORS
330
2A
102
}
330
2A
100
AcDbVisualStyle
  2
Thicken
 70
    13
177
     3
291
     1
 70
    58
 90
        2
176
     1
 90
        2
176
     1
 90
        0
176
     1
 90
        0
176
     1
 40
0.6
176
     1
 40
30.0
176
     1
 62
     7
420
 16777215
176
     1
 90
        1
176
     1
 90
        4
176
     1
 62
     7
176
     1
 62
   257
176
     1
 90
        1
176
     1
 90
        1
176
     1
 40
1.0
176
     1
 90
       12
176
     1
 62
     7
176
     1
 40
1.0
176
     1
 90
        1
176
     1
 90
        6
176
     1
 90
        2
176
     1
 62
     7
176
     1
 90
        5
176
     1
 90
        0
176
     1
 90
        0
176
     1
290
     0
176
     1
 90
        1
176
     1
 40
0.0
176
     1
 90
        0
176
     1
290
     0
176
     1
290
     1
176
     1
290
     1
176
     1
290
     0
176
     1
290
     0
176
     1
290
     0
176
     1
290
     0
176
     1
290
     0
176
     1
290
     0
176
     1
 90
       50
176
     1
 40
0.0
176
     1
 40
1.0
176
     1
 90
        0
176
     1
 62
    18
420
        0
176
     1
 90
       50
176
     1
 90
        3
176
     1
 62
     5
420
      255
176
     1
290
     0
176
     1
 90
       50
176
     1
 90
       50
176
     1
 90
       50
176
     1
290
     0
176
     1
 90
       50
176
     1
 62
   256
176
     0
 40
1.0
176
     0
 90
        2
176
     1
  1
strokes_ogs.tif
176
     1
290
     0
176
     1
 40
1.0
176
     1
 40
1.0
176
     1
  0
VISUALSTYLE
  5
30
102
{ACAD_REACTORS
330
2A
102
}
330
2A
100
AcDbVisualStyle
  2
Wireframe
 70
     5
177
     3
291
     0
 70
    58
 90
        0
176
     1
 90
        2
176
     1
 90
        0
176
     1
 90
        0
176
     1
 40
0.6
176
     1
 40
30.0
176
     1
 62
     7
420
 16777215
176
     1
 90
        1
176
     1
 90
        4
176
     1
 62
     7
176
     1
 62
   257
176
     1
 90
        1
176
     1
 90
        1
176
     1
 40
1.0
176
     1
 90
        0
176
     1
 62
   257
176
     1
 40
1.0
176
     1
 90
        1
176
     1
 90
        6
176
     1
 90
        2
176
     1
 62
     7
176
     1
 90
        3
176
     1
 90
        0
176
     1
 90
        0
176
     1
290
     0
176
     1
 90
        1
176
     1
 40
0.0
176
     1
 90
        0
176
     1
290
     0
176
     1
290
     1
176
     1
290
     1
176
     1
290
     0
176
     1
290
     0
176
     1
290
     0
176
     1
290
     0
176
     1
290
     0
176
     1
290
     0
176
     1
 90
       50
176
     1
 40
0.0
176
     1
 40
1.0
176
     1
 90
        0
176
     1
 62
    18
420
        0
176
     1
 90
       50
176
     1
 90
        3
176
     1
 62
     5
420
      255
176
     1
290
     0
176
     1
 90
       50
176
     1
 90
       50
176
     1
 90
       50
176
     1
290
     0
176
     1
 90
       50
176
     1
 62
   256
176
     0
 40
1.0
176
     0
 90
        2
176
     1
  1
strokes_ogs.tif
176
     1
290
     0
176
     1
 40
1.0
176
     1
 40
1.0
176
     1
  0
VISUALSTYLE
  5
40
102
{ACAD_REACTORS
330
2A
102
}
330
2A
100
AcDbVisualStyle
  2
X-Ray
 70
    25
177
     3
291
     0
 70
    58
 90
        2
176
     1
 90
        2
176
     1
 90
        1
176
     1
 90
        1
176
     1
 40
0.5
176
     1
 40
30.0
176
     1
 62
     7
420
 16777215
176
     1
 90
        1
176
     1
 90
        0
176
     1
 62
     7
176
     1
 62
   257
176
     1
 90
        1
176
     1
 90
        1
176
     1
 40
1.0
176
     1
 90
        8
176
     1
 62
     7
176
     1
 40
1.0
176
     1
 90
        1
176
     1
 90
        6
176
     1
 90
        2
176
     1
 62
     7
176
     1
 90
        3
176
     1
 90
        0
176
     1
 90
        0
176
     1
290
     0
176
     1
 90
       13
176
     1
 40
0.0
176
     1
 90
        0
176
     1
290
     0
176
     1
290
     1
176
     1
290
     1
176
     1
290
     0
176
     1
290
     0
176
     1
290
     0
176
     1
290
     0
176
     1
290
     0
176
     1
290
     0
176
     1
 90
       50
176
     1
 40
0.0
176
     1
 40
1.0
176
     1
 90
        0
176
     1
 62
    18
420
        0
176
     1
 90
       50
176
     1
 90
        3
176
     1
 62
     5
420
      255
176
     1
290
     0
176
     1
 90
       50
176
     1
 90
       50
176
     1
 90
       50
176
     1
290
     0
176
     1
 90
       50
176
     1
 62
   256
176
     0
 40
1.0
176
     0
 90
        2
176
     1
  1
strokes_ogs.tif
176
     1
290
     0
176
     1
 40
1.0
176
     1
 40
1.0
176
     1
  0
DICTIONARYVAR
  5
1FB
102
{ACAD_REACTORS
330
1FA
102
}
330
1FA
100
DictionaryVariables
280
     0
  1
1:1
  0
DICTIONARYVAR
  5
200
102
{ACAD_REACTORS
330
1FA
102
}
330
1FA
100
DictionaryVariables
280
     0
  1
Standard
  0
DICTIONARYVAR
  5
1FF
102
{ACAD_REACTORS
330
1FA
102
}
330
1FA
100
DictionaryVariables
280
     0
  1
Standard
  0
DICTIONARY
  5
1FC
330
6A
100
AcDbDictionary
280
     1
281
     1
  3
ACAD_ROUNDTRIP_2008_TABLESTYLE_CELLSTYLEMAP
360
1FD
  0
CELLSTYLEMAP
  5
1FD
102
{ACAD_REACTORS
330
1FC
102
}
330
1FC
100
AcDbCellStyleMap
 90
        3
300
CELLSTYLE
  1
TABLEFORMAT_BEGIN
 90
        5
170
     1
 91
        0
 92
    32768
 62
   257
 93
        1
300
CONTENTFORMAT
  1
CONTENTFORMAT_BEGIN
 90
        0
 91
        0
 92
        4
 93
        0
300

 40
0.0
140
1.0
 94
        5
 62
     0
340
11
144
6.0
309
CONTENTFORMAT_END
171
     1
301
MARGIN
  1
CELLMARGIN_BEGIN
 40
1.5
 40
1.5
 40
1.5
 40
1.5
 40
1.5
 40
1.5
309
CELLMARGIN_END
 94
        6
 95
        1
302
GRIDFORMAT
  1
GRIDFORMAT_BEGIN
 90
        0
 91
        1
 62
     0
 92
       -2
340
14
 93
        0
 40
0.045
309
GRIDFORMAT_END
 95
        2
302
GRIDFORMAT
  1
GRIDFORMAT_BEGIN
 90
        0
 91
        1
 62
     0
 92
       -2
340
14
 93
        0
 40
0.045
309
GRIDFORMAT_END
 95
        4
302
GRIDFORMAT
  1
GRIDFORMAT_BEGIN
 90
        0
 91
        1
 62
     0
 92
       -2
340
14
 93
        0
 40
0.045
309
GRIDFORMAT_END
 95
        8
302
GRIDFORMAT
  1
GRIDFORMAT_BEGIN
 90
        0
 91
        1
 62
     0
 92
       -2
340
14
 93
        0
 40
0.045
309
GRIDFORMAT_END
 95
       16
302
GRIDFORMAT
  1
GRIDFORMAT_BEGIN
 90
        0
 91
        1
 62
     0
 92
       -2
340
14
 93
        0
 40
0.045
309
GRIDFORMAT_END
 95
       32
302
GRIDFORMAT
  1
GRIDFORMAT_BEGIN
 90
        0
 91
        1
 62
     0
 92
       -2
340
14
 93
        0
 40
0.045
309
GRIDFORMAT_END
309
TABLEFORMAT_END
  1
CELLSTYLE_BEGIN
 90
        1
 91
        1
300
_TITLE
309
CELLSTYLE_END
300
CELLSTYLE
  1
TABLEFORMAT_BEGIN
 90
        5
170
     1
 91
        0
 92
        0
 62
   257
 93
        1
300
CONTENTFORMAT
  1
CONTENTFORMAT_BEGIN
 90
        0
 91
        0
 92
        4
 93
        0
300

 40
0.0
140
1.0
 94
        5
 62
     0
340
11
144
4.5
309
CONTENTFORMAT_END
171
     1
301
MARGIN
  1
CELLMARGIN_BEGIN
 40
1.5
 40
1.5
 40
1.5
 40
1.5
 40
1.5
 40
1.5
309
CELLMARGIN_END
 94
        6
 95
        1
302
GRIDFORMAT
  1
GRIDFORMAT_BEGIN
 90
        0
 91
        1
 62
     0
 92
       -2
340
14
 93
        0
 40
0.045
309
GRIDFORMAT_END
 95
        2
302
GRIDFORMAT
  1
GRIDFORMAT_BEGIN
 90
        0
 91
        1
 62
     0
 92
       -2
340
14
 93
        0
 40
0.045
309
GRIDFORMAT_END
 95
        4
302
GRIDFORMAT
  1
GRIDFORMAT_BEGIN
 90
        0
 91
        1
 62
     0
 92
       -2
340
14
 93
        0
 40
0.045
309
GRIDFORMAT_END
 95
        8
302
GRIDFORMAT
  1
GRIDFORMAT_BEGIN
 90
        0
 91
        1
 62
     0
 92
       -2
340
14
 93
        0
 40
0.045
309
GRIDFORMAT_END
 95
       16
302
GRIDFORMAT
  1
GRIDFORMAT_BEGIN
 90
        0
 91
        1
 62
     0
 92
       -2
340
14
 93
        0
 40
0.045
309
GRIDFORMAT_END
 95
       32
302
GRIDFORMAT
  1
GRIDFORMAT_BEGIN
 90
        0
 91
        1
 62
     0
 92
       -2
340
14
 93
        0
 40
0.045
309
GRIDFORMAT_END
309
TABLEFORMAT_END
  1
CELLSTYLE_BEGIN
 90
        2
 91
        1
300
_HEADER
309
CELLSTYLE_END
300
CELLSTYLE
  1
TABLEFORMAT_BEGIN
 90
        5
170
     1
 91
        0
 92
        0
 62
   257
 93
        1
300
CONTENTFORMAT
  1
CONTENTFORMAT_BEGIN
 90
        0
 91
        0
 92
        4
 93
        0
300

 40
0.0
140
1.0
 94
        2
 62
     0
340
11
144
4.5
309
CONTENTFORMAT_END
171
     1
301
MARGIN
  1
CELLMARGIN_BEGIN
 40
1.5
 40
1.5
 40
1.5
 40
1.5
 40
1.5
 40
1.5
309
CELLMARGIN_END
 94
        6
 95
        1
302
GRIDFORMAT
  1
GRIDFORMAT_BEGIN
 90
        0
 91
        1
 62
     0
 92
       -2
340
14
 93
        0
 40
0.045
309
GRIDFORMAT_END
 95
        2
302
GRIDFORMAT
  1
GRIDFORMAT_BEGIN
 90
        0
 91
        1
 62
     0
 92
       -2
340
14
 93
        0
 40
0.045
309
GRIDFORMAT_END
 95
        4
302
GRIDFORMAT
  1
GRIDFORMAT_BEGIN
 90
        0
 91
        1
 62
     0
 92
       -2
340
14
 93
        0
 40
0.045
309
GRIDFORMAT_END
 95
        8
302
GRIDFORMAT
  1
GRIDFORMAT_BEGIN
 90
        0
 91
        1
 62
     0
 92
       -2
340
14
 93
        0
 40
0.045
309
GRIDFORMAT_END
 95
       16
302
GRIDFORMAT
  1
GRIDFORMAT_BEGIN
 90
        0
 91
        1
 62
     0
 92
       -2
340
14
 93
        0
 40
0.045
309
GRIDFORMAT_END
 95
       32
302
GRIDFORMAT
  1
GRIDFORMAT_BEGIN
 90
        0
 91
        1
 62
     0
 92
       -2
340
14
 93
        0
 40
0.045
309
GRIDFORMAT_END
309
TABLEFORMAT_END
  1
CELLSTYLE_BEGIN
 90
        3
 91
        2
300
_DATA
309
CELLSTYLE_END
  0
ENDSEC
  0
EOF
